<svg width="70" height="70" viewBox="0 0 70 70" fill="none" xmlns="http://www.w3.org/2000/svg">
<path d="M55.7941 34.273C54.3675 34.273 53.1787 33.0775 53.1787 31.6428C53.1787 23.752 53.1787 15.7815 53.1787 7.89077C53.1787 5.34021 53.0202 5.18081 50.5634 5.18081C36.2978 5.18081 22.0323 5.18081 7.84604 5.18081C6.41949 5.18081 5.30994 6.29667 5.30994 7.73136C5.30994 25.904 5.30994 44.1564 5.30994 62.3291C5.30994 64.4811 5.62696 64.7999 7.76679 64.7999C21.9531 64.7999 36.1393 64.7999 50.3256 64.7999C51.7522 64.7999 52.9409 65.9158 52.9409 67.3505V67.3505C52.9409 68.7852 51.7522 69.9807 50.3256 69.9807C36.4563 69.9807 21.1605 69.9807 7.44977 69.9807C3.56638 69.9807 0.951035 68.1475 0.237759 64.8796C0.0792529 64.0826 0.0792529 63.2855 0.0792529 62.4885C0.0792529 44.3955 0.158506 26.2228 0 8.12988C0 5.34021 0.634023 3.10848 2.37759 1.59409C3.56638 0.478228 5.23069 0 6.81575 0H51.7522C53.4165 0 55.0015 0.557933 56.2696 1.6738C58.0131 3.26789 58.5679 5.57933 58.5679 8.36899C58.4094 16.738 58.4887 23.5129 58.4887 31.5631C58.4887 33.0775 57.2999 34.273 55.7941 34.273V34.273Z" fill="#505050"/>
<path fill-rule="evenodd" clip-rule="evenodd" d="M64.8297 69.1039C66.0185 70.2995 67.9205 70.2995 69.1093 69.1039C70.2981 67.9084 70.2981 65.9955 69.1093 64.7202C67.445 63.0862 65.8005 61.4324 64.156 59.7785C62.5115 58.1246 60.867 56.4707 59.2027 54.8368C58.6479 54.1992 58.4894 53.8006 58.8857 53.0036C59.916 50.8516 60.1538 48.4604 59.6782 46.0693C58.4894 40.3305 53.021 36.1859 47.5525 36.8235C41.2916 37.5409 36.6949 42.642 36.9326 48.6198C37.1704 54.7571 41.9256 59.6988 47.8695 59.8582C49.2118 59.9101 50.5876 59.6238 52.1066 59.3078C52.9196 59.1386 53.7735 58.961 54.6853 58.822C57.8554 62.0899 61.3425 65.5969 64.8297 69.1039ZM55.2399 48.4598C55.1606 52.2856 52.2283 55.155 48.3449 55.155C44.4615 55.155 41.6084 52.1262 41.6876 48.3004C41.7669 44.5542 44.7785 41.6052 48.5826 41.6052C52.3075 41.6052 55.2399 44.6339 55.2399 48.4598Z" fill="#1CCEDE"/>
<path d="M42.4789 30.5254C42.4789 32.2789 42.4789 33.9527 42.4789 35.7062C31.7005 35.7062 20.9221 35.7062 10.0645 35.7062C10.0645 34.0324 10.0645 32.3586 10.0645 30.5254C20.7636 30.5254 31.542 30.5254 42.4789 30.5254Z" fill="#505050"/>
<path d="M9.98633 20.7257C9.98633 19.0519 9.98633 17.3781 9.98633 15.5449C20.7647 15.5449 31.5431 15.5449 42.4008 15.5449C42.4008 17.2187 42.4008 18.8925 42.4008 20.7257C31.7016 20.7257 20.9232 20.7257 9.98633 20.7257Z" fill="#505050"/>
</svg>
