<svg width="82" height="82" viewBox="0 0 82 82" fill="none" xmlns="http://www.w3.org/2000/svg">
<path fill-rule="evenodd" clip-rule="evenodd" d="M41 1C45.4183 1 49 4.58172 49 9C48.9956 13.4165 45.4165 16.9956 41 17C36.5817 17 33 13.4183 33 9C33 4.58172 36.5817 1 41 1ZM41.0001 3.66619C38.0545 3.66619 35.6667 6.05401 35.6667 8.99953C35.6667 11.945 38.0545 14.3329 41.0001 14.3329C43.9456 14.3329 46.3334 11.945 46.3334 8.99953C46.3334 6.05401 43.9456 3.66619 41.0001 3.66619Z" fill="#1CCEDE"/>
<path d="M49 9L50 9.001V9H49ZM41 17L41 18L41.001 18L41 17ZM50 9C50 4.02944 45.9706 0 41 0V2C44.866 2 48 5.13401 48 9H50ZM41.001 18C45.969 17.995 49.995 13.969 50 9.001L48 8.999C47.9961 12.8639 44.8639 15.9961 40.999 16L41.001 18ZM32 9C32 13.9706 36.0294 18 41 18V16C37.134 16 34 12.866 34 9H32ZM41 0C36.0294 0 32 4.02944 32 9H34C34 5.13401 37.134 2 41 2V0ZM36.6667 8.99953C36.6667 6.60629 38.6068 4.66619 41.0001 4.66619V2.66619C37.5023 2.66619 34.6667 5.50172 34.6667 8.99953H36.6667ZM41.0001 13.3329C38.6068 13.3329 36.6667 11.3928 36.6667 8.99953H34.6667C34.6667 12.4973 37.5023 15.3329 41.0001 15.3329V13.3329ZM45.3334 8.99953C45.3334 11.3928 43.3933 13.3329 41.0001 13.3329V15.3329C44.4979 15.3329 47.3334 12.4973 47.3334 8.99953H45.3334ZM41.0001 4.66619C43.3933 4.66619 45.3334 6.60629 45.3334 8.99953H47.3334C47.3334 5.50172 44.4979 2.66619 41.0001 2.66619V4.66619Z" fill="#1CCEDE"/>
<path fill-rule="evenodd" clip-rule="evenodd" d="M29 33.0007V25.0007C29.0044 21.3206 31.9866 18.3384 35.6667 18.334H35.9813L36.2627 18.474C39.2462 19.9594 42.7538 19.9594 45.7373 18.474L46.0187 18.334H46.3333C50.0134 18.3384 52.9956 21.3206 53 25.0007V33.0007C53 35.2098 51.2091 37.0007 49 37.0007H33C30.7909 37.0007 29 35.2098 29 33.0007ZM35.3827 21.0114C33.2893 21.1604 31.667 22.902 31.6667 25.0007V33.0007C31.6667 33.7371 32.2637 34.334 33.0001 34.334H49.0001C49.7364 34.334 50.3334 33.7371 50.3334 33.0007V25.0007C50.3331 22.902 48.7108 21.1604 46.6174 21.0114C43.055 22.6646 38.9451 22.6646 35.3827 21.0114Z" fill="#1CCEDE"/>
<path d="M29 25.0007L28 24.9995V25.0007H29ZM35.6667 18.334V17.334L35.6655 17.334L35.6667 18.334ZM35.9813 18.334L36.4268 17.4387L36.2164 17.334H35.9813V18.334ZM36.2627 18.474L36.7084 17.5788L36.7082 17.5787L36.2627 18.474ZM45.7373 18.474L45.2918 17.5787L45.2917 17.5788L45.7373 18.474ZM46.0187 18.334V17.334H45.7836L45.5731 17.4387L46.0187 18.334ZM46.3333 18.334L46.3345 17.334H46.3333V18.334ZM53 25.0007L54 25.0007L54 24.9995L53 25.0007ZM31.6667 25.0007L30.6667 25.0006V25.0007H31.6667ZM35.3827 21.0114L35.8037 20.1043L35.5694 19.9955L35.3117 20.0139L35.3827 21.0114ZM50.3334 25.0007L51.3334 25.0007L51.3334 25.0006L50.3334 25.0007ZM46.6174 21.0114L46.6884 20.0139L46.4307 19.9955L46.1964 20.1043L46.6174 21.0114ZM28 25.0007V33.0007H30V25.0007H28ZM35.6655 17.334C31.434 17.3391 28.0051 20.768 28 24.9995L30 25.0018C30.0037 21.8731 32.5391 19.3377 35.6679 19.334L35.6655 17.334ZM35.9813 17.334H35.6667V19.334H35.9813V17.334ZM36.7082 17.5787L36.4268 17.4387L35.5358 19.2293L35.8172 19.3693L36.7082 17.5787ZM45.2917 17.5788C42.5888 18.9245 39.4112 18.9245 36.7084 17.5788L35.817 19.3692C39.0812 20.9943 42.9188 20.9943 46.183 19.3692L45.2917 17.5788ZM45.5731 17.4387L45.2918 17.5787L46.1829 19.3693L46.4642 19.2293L45.5731 17.4387ZM46.3333 17.334H46.0187V19.334H46.3333V17.334ZM54 24.9995C53.9949 20.768 50.566 17.3391 46.3345 17.334L46.3321 19.334C49.4609 19.3377 51.9963 21.8731 52 25.0018L54 24.9995ZM54 33.0007V25.0007H52V33.0007H54ZM49 38.0007C51.7614 38.0007 54 35.7621 54 33.0007H52C52 34.6575 50.6569 36.0007 49 36.0007V38.0007ZM33 38.0007H49V36.0007H33V38.0007ZM28 33.0007C28 35.7621 30.2386 38.0007 33 38.0007V36.0007C31.3431 36.0007 30 34.6575 30 33.0007H28ZM32.6667 25.0008C32.667 23.4268 33.8837 22.1206 35.4537 22.0088L35.3117 20.0139C32.695 20.2001 30.6671 22.3772 30.6667 25.0006L32.6667 25.0008ZM32.6667 33.0007V25.0007H30.6667V33.0007H32.6667ZM33.0001 33.334C32.816 33.334 32.6667 33.1848 32.6667 33.0007H30.6667C30.6667 34.2894 31.7114 35.334 33.0001 35.334V33.334ZM49.0001 33.334H33.0001V35.334H49.0001V33.334ZM49.3334 33.0007C49.3334 33.1848 49.1842 33.334 49.0001 33.334V35.334C50.2887 35.334 51.3334 34.2894 51.3334 33.0007H49.3334ZM49.3334 25.0007V33.0007H51.3334V25.0007H49.3334ZM46.5464 22.0088C48.1165 22.1206 49.3332 23.4268 49.3334 25.0008L51.3334 25.0006C51.333 22.3772 49.3052 20.2001 46.6884 20.0139L46.5464 22.0088ZM34.9618 21.9184C38.7912 23.6956 43.209 23.6956 47.0384 21.9184L46.1964 20.1043C42.901 21.6337 39.0991 21.6337 35.8037 20.1043L34.9618 21.9184Z" fill="#1CCEDE"/>
<path fill-rule="evenodd" clip-rule="evenodd" d="M61 53C61 48.5817 64.5817 45 69 45C73.4165 45.0044 76.9956 48.5835 77 53C77 57.4183 73.4183 61 69 61C64.5817 61 61 57.4183 61 53ZM63.6667 52.9995C63.6667 55.945 66.0545 58.3329 69.0001 58.3329C71.9456 58.3329 74.3334 55.945 74.3334 52.9995C74.3334 50.054 71.9456 47.6662 69.0001 47.6662C66.0545 47.6662 63.6667 50.054 63.6667 52.9995Z" fill="#505050"/>
<path d="M69 45L69.001 44H69V45ZM77 53L78 53L78 52.999L77 53ZM69 44C64.0294 44 60 48.0294 60 53H62C62 49.134 65.134 46 69 46V44ZM78 52.999C77.995 48.031 73.969 44.005 69.001 44L68.999 46C72.8639 46.0039 75.9961 49.1361 76 53.001L78 52.999ZM69 62C73.9706 62 78 57.9706 78 53H76C76 56.866 72.866 60 69 60V62ZM60 53C60 57.9706 64.0294 62 69 62V60C65.134 60 62 56.866 62 53H60ZM69.0001 57.3329C66.6068 57.3329 64.6667 55.3928 64.6667 52.9995H62.6667C62.6667 56.4973 65.5023 59.3329 69.0001 59.3329V57.3329ZM73.3334 52.9995C73.3334 55.3928 71.3933 57.3329 69.0001 57.3329V59.3329C72.4979 59.3329 75.3334 56.4973 75.3334 52.9995H73.3334ZM69.0001 48.6662C71.3933 48.6662 73.3334 50.6063 73.3334 52.9995H75.3334C75.3334 49.5017 72.4979 46.6662 69.0001 46.6662V48.6662ZM64.6667 52.9995C64.6667 50.6063 66.6068 48.6662 69.0001 48.6662V46.6662C65.5023 46.6662 62.6667 49.5017 62.6667 52.9995H64.6667Z" fill="#505050"/>
<path fill-rule="evenodd" clip-rule="evenodd" d="M74.0187 62.334H74.3333C78.0134 62.3384 80.9956 65.3206 81 69.0007V77.0007C81 79.2098 79.2091 81.0007 77 81.0007H61C58.7909 81.0007 57 79.2098 57 77.0007V69.0007C57.0044 65.3206 59.9866 62.3384 63.6667 62.334H63.9813L64.2627 62.4673C67.2462 63.9527 70.7538 63.9527 73.7373 62.4673L74.0187 62.334ZM77.0001 78.334C77.7364 78.334 78.3334 77.7371 78.3334 77.0007V69.0007C78.3331 66.902 76.7108 65.1604 74.6174 65.0114C71.055 66.6646 66.9451 66.6646 63.3827 65.0114C61.2893 65.1604 59.667 66.902 59.6667 69.0007V77.0007C59.6667 77.7371 60.2637 78.334 61.0001 78.334H77.0001Z" fill="#505050"/>
<path d="M74.3333 62.334L74.3345 61.334H74.3333V62.334ZM74.0187 62.334V61.334H73.7937L73.5904 61.4303L74.0187 62.334ZM81 69.0007L82 69.0007L82 68.9995L81 69.0007ZM57 69.0007L56 68.9995V69.0007H57ZM63.6667 62.334V61.334L63.6655 61.334L63.6667 62.334ZM63.9813 62.334L64.4096 61.4303L64.2063 61.334H63.9813V62.334ZM64.2627 62.4673L64.7084 61.5721L64.6997 61.5678L64.6909 61.5637L64.2627 62.4673ZM73.7373 62.4673L73.3091 61.5637L73.3003 61.5678L73.2917 61.5721L73.7373 62.4673ZM78.3334 69.0007L79.3334 69.0007L79.3334 69.0006L78.3334 69.0007ZM74.6174 65.0114L74.6884 64.0139L74.4307 63.9955L74.1964 64.1043L74.6174 65.0114ZM63.3827 65.0114L63.8037 64.1043L63.5694 63.9955L63.3117 64.0139L63.3827 65.0114ZM59.6667 69.0007L58.6667 69.0006V69.0007H59.6667ZM74.3333 61.334H74.0187V63.334H74.3333V61.334ZM82 68.9995C81.9949 64.768 78.566 61.3391 74.3345 61.334L74.3321 63.334C77.4609 63.3377 79.9963 65.8731 80 69.0018L82 68.9995ZM82 77.0007V69.0007H80V77.0007H82ZM77 82.0007C79.7614 82.0007 82 79.7621 82 77.0007H80C80 78.6575 78.6569 80.0007 77 80.0007V82.0007ZM61 82.0007H77V80.0007H61V82.0007ZM56 77.0007C56 79.7621 58.2386 82.0007 61 82.0007V80.0007C59.3431 80.0007 58 78.6575 58 77.0007H56ZM56 69.0007V77.0007H58V69.0007H56ZM63.6655 61.334C59.434 61.3391 56.0051 64.768 56 68.9995L58 69.0018C58.0037 65.8731 60.5391 63.3377 63.6679 63.334L63.6655 61.334ZM63.9813 61.334H63.6667V63.334H63.9813V61.334ZM64.6909 61.5637L64.4096 61.4303L63.5531 63.2376L63.8344 63.371L64.6909 61.5637ZM73.2917 61.5721C70.5888 62.9178 67.4112 62.9178 64.7084 61.5721L63.817 63.3625C67.0812 64.9877 70.9188 64.9877 74.183 63.3625L73.2917 61.5721ZM73.5904 61.4303L73.3091 61.5637L74.1656 63.371L74.4469 63.2376L73.5904 61.4303ZM77.3334 77.0007C77.3334 77.1848 77.1842 77.334 77.0001 77.334V79.334C78.2887 79.334 79.3334 78.2894 79.3334 77.0007H77.3334ZM77.3334 69.0007V77.0007H79.3334V69.0007H77.3334ZM74.5464 66.0088C76.1165 66.1206 77.3332 67.4268 77.3334 69.0008L79.3334 69.0006C79.333 66.3772 77.3052 64.2001 74.6884 64.0139L74.5464 66.0088ZM62.9618 65.9184C66.7912 67.6956 71.209 67.6956 75.0384 65.9184L74.1964 64.1043C70.901 65.6337 67.0991 65.6337 63.8037 64.1043L62.9618 65.9184ZM60.6667 69.0008C60.667 67.4268 61.8837 66.1206 63.4537 66.0088L63.3117 64.0139C60.695 64.2001 58.6671 66.3772 58.6667 69.0006L60.6667 69.0008ZM60.6667 77.0007V69.0007H58.6667V77.0007H60.6667ZM61.0001 77.334C60.816 77.334 60.6667 77.1848 60.6667 77.0007H58.6667C58.6667 78.2894 59.7114 79.334 61.0001 79.334V77.334ZM77.0001 77.334H61.0001V79.334H77.0001V77.334Z" fill="#505050"/>
<path fill-rule="evenodd" clip-rule="evenodd" d="M5 53C5 48.5817 8.58172 45 13 45C17.4165 45.0044 20.9956 48.5835 21 53C21 57.4183 17.4183 61 13 61C8.58172 61 5 57.4183 5 53ZM7.66673 52.9995C7.66673 55.945 10.0545 58.3329 13.0001 58.3329C15.9456 58.3329 18.3334 55.945 18.3334 52.9995C18.3334 50.054 15.9456 47.6662 13.0001 47.6662C10.0545 47.6662 7.66673 50.054 7.66673 52.9995Z" fill="#505050"/>
<path d="M13 45L13.001 44H13V45ZM21 53L22 53L22 52.999L21 53ZM13 44C8.02944 44 4 48.0294 4 53H6C6 49.134 9.13401 46 13 46V44ZM22 52.999C21.995 48.031 17.969 44.005 13.001 44L12.999 46C16.8639 46.0039 19.9961 49.1361 20 53.001L22 52.999ZM13 62C17.9706 62 22 57.9706 22 53H20C20 56.866 16.866 60 13 60V62ZM4 53C4 57.9706 8.02944 62 13 62V60C9.13401 60 6 56.866 6 53H4ZM13.0001 57.3329C10.6068 57.3329 8.66673 55.3928 8.66673 52.9995H6.66673C6.66673 56.4973 9.50226 59.3329 13.0001 59.3329V57.3329ZM17.3334 52.9995C17.3334 55.3928 15.3933 57.3329 13.0001 57.3329V59.3329C16.4979 59.3329 19.3334 56.4973 19.3334 52.9995H17.3334ZM13.0001 48.6662C15.3933 48.6662 17.3334 50.6063 17.3334 52.9995H19.3334C19.3334 49.5017 16.4979 46.6662 13.0001 46.6662V48.6662ZM8.66673 52.9995C8.66673 50.6063 10.6068 48.6662 13.0001 48.6662V46.6662C9.50226 46.6662 6.66673 49.5017 6.66673 52.9995H8.66673Z" fill="#505050"/>
<path fill-rule="evenodd" clip-rule="evenodd" d="M21 81.0007H5C2.79086 81.0007 1 79.2098 1 77.0007V69.0007C1.00441 65.3206 3.9866 62.3384 7.66667 62.334H7.98133L8.26267 62.4673C11.2462 63.9527 14.7538 63.9527 17.7373 62.4673L18.0187 62.334H18.3333C22.0134 62.3384 24.9956 65.3206 25 69.0007V77.0007C25 79.2098 23.2091 81.0007 21 81.0007ZM7.38273 65.0114C5.28931 65.1604 3.66703 66.902 3.66673 69.0007V77.0007C3.66673 77.7371 4.26368 78.334 5.00006 78.334H21.0001C21.7364 78.334 22.3334 77.7371 22.3334 77.0007V69.0007C22.3331 66.902 20.7108 65.1604 18.6174 65.0114C15.055 66.6646 10.9451 66.6646 7.38273 65.0114Z" fill="#505050"/>
<path d="M1 69.0007L0 68.9995V69.0007H1ZM7.66667 62.334L7.66667 61.334L7.66547 61.334L7.66667 62.334ZM7.98133 62.334L8.4096 61.4303L8.20631 61.334H7.98133V62.334ZM8.26267 62.4673L8.70835 61.5721L8.69969 61.5678L8.69094 61.5637L8.26267 62.4673ZM17.7373 62.4673L17.3091 61.5637L17.3003 61.5678L17.2917 61.5721L17.7373 62.4673ZM18.0187 62.334V61.334H17.7937L17.5904 61.4303L18.0187 62.334ZM18.3333 62.334L18.3345 61.334H18.3333V62.334ZM25 69.0007L26 69.0007L26 68.9995L25 69.0007ZM3.66673 69.0007L2.66673 69.0006V69.0007H3.66673ZM7.38273 65.0114L7.80369 64.1043L7.56938 63.9955L7.31173 64.0139L7.38273 65.0114ZM22.3334 69.0007L23.3334 69.0007L23.3334 69.0006L22.3334 69.0007ZM18.6174 65.0114L18.6884 64.0139L18.4307 63.9955L18.1964 64.1043L18.6174 65.0114ZM5 82.0007H21V80.0007H5V82.0007ZM0 77.0007C0 79.7621 2.23858 82.0007 5 82.0007V80.0007C3.34315 80.0007 2 78.6575 2 77.0007H0ZM0 69.0007V77.0007H2V69.0007H0ZM7.66547 61.334C3.43405 61.3391 0.0050693 64.768 7.17416e-07 68.9995L2 69.0018C2.00375 65.8731 4.53914 63.3377 7.66786 63.334L7.66547 61.334ZM7.98133 61.334H7.66667V63.334H7.98133V61.334ZM8.69094 61.5637L8.4096 61.4303L7.55306 63.2376L7.8344 63.371L8.69094 61.5637ZM17.2917 61.5721C14.5888 62.9178 11.4112 62.9178 8.70835 61.5721L7.81698 63.3625C11.0812 64.9877 14.9188 64.9877 18.183 63.3625L17.2917 61.5721ZM17.5904 61.4303L17.3091 61.5637L18.1656 63.371L18.4469 63.2376L17.5904 61.4303ZM18.3333 61.334H18.0187V63.334H18.3333V61.334ZM26 68.9995C25.9949 64.768 22.566 61.3391 18.3345 61.334L18.3321 63.334C21.4609 63.3377 23.9963 65.8731 24 69.0018L26 68.9995ZM26 77.0007V69.0007H24V77.0007H26ZM21 82.0007C23.7614 82.0007 26 79.7621 26 77.0007H24C24 78.6575 22.6569 80.0007 21 80.0007V82.0007ZM4.66673 69.0008C4.66695 67.4268 5.88366 66.1206 7.45373 66.0088L7.31173 64.0139C4.69495 64.2001 2.6671 66.3772 2.66673 69.0006L4.66673 69.0008ZM4.66673 77.0007V69.0007H2.66673V77.0007H4.66673ZM5.00006 77.334C4.81597 77.334 4.66673 77.1848 4.66673 77.0007H2.66673C2.66673 78.2894 3.71139 79.334 5.00006 79.334V77.334ZM21.0001 77.334H5.00006V79.334H21.0001V77.334ZM21.3334 77.0007C21.3334 77.1848 21.1842 77.334 21.0001 77.334V79.334C22.2887 79.334 23.3334 78.2894 23.3334 77.0007H21.3334ZM21.3334 69.0007V77.0007H23.3334V69.0007H21.3334ZM18.5464 66.0088C20.1165 66.1206 21.3332 67.4268 21.3334 69.0008L23.3334 69.0006C23.333 66.3772 21.3052 64.2001 18.6884 64.0139L18.5464 66.0088ZM6.96176 65.9184C10.7912 67.6956 15.209 67.6956 19.0384 65.9184L18.1964 64.1043C14.901 65.6337 11.0991 65.6337 7.80369 64.1043L6.96176 65.9184Z" fill="#505050"/>
<path d="M54.2266 68.7074C54.088 68.3821 53.8258 68.1251 53.4977 67.9931C53.1697 67.8611 52.8026 67.8648 52.4773 68.0034C46.4564 70.5267 39.7698 70.9871 33.4599 69.3128L34.7079 68.9461C35.4149 68.7392 35.8202 67.9983 35.6133 67.2914C35.4063 66.5845 34.6655 66.1792 33.9586 66.3861L28.6253 67.9501C28.6053 67.9501 28.5906 67.9728 28.5719 67.9794C28.4484 68.0254 28.3324 68.0897 28.2279 68.1701C28.1817 68.1951 28.1371 68.2231 28.0946 68.2541C27.954 68.3796 27.8425 68.5343 27.7679 68.7074C27.6956 68.8817 27.661 69.0694 27.6666 69.2581C27.6991 69.4386 27.7436 69.6168 27.7999 69.7914C27.8079 69.8101 27.7999 69.8314 27.8146 69.8501L30.4813 74.9528C30.8222 75.6059 31.6281 75.859 32.2813 75.5181C32.9344 75.1771 33.1875 74.3713 32.8466 73.7181L31.7613 71.6434C38.9303 73.7985 46.6271 73.3797 53.5199 70.4594C53.8464 70.3213 54.1045 70.0589 54.2371 69.7302C54.3697 69.4014 54.3659 69.0334 54.2266 68.7074Z" fill="#505050" stroke="#505050" stroke-width="2"/>
<path d="M76.6091 36.0579C76.0884 35.5374 75.2444 35.5374 74.7237 36.0579L72.8371 37.9446C71.733 26.2663 64.3186 16.1319 53.5224 11.5446C52.8449 11.2559 52.0617 11.5711 51.7731 12.2486C51.4844 12.926 51.7996 13.7092 52.4771 13.9979C62.162 18.114 68.8944 27.1094 70.1131 37.5619L68.6091 36.0579C68.0859 35.5526 67.2543 35.5598 66.74 36.0741C66.2257 36.5884 66.2184 37.42 66.7237 37.9432L70.7237 41.9432C70.9739 42.194 71.3135 42.3349 71.6677 42.3349C72.0219 42.3349 72.3616 42.194 72.6117 41.9432L76.6117 37.9432C77.1315 37.4218 77.1303 36.5778 76.6091 36.0579Z" fill="#505050" stroke="#505050" stroke-width="2"/>
<path d="M25.756 19.5334C25.9358 19.6212 26.1332 19.6668 26.3333 19.6667C26.8453 19.666 27.3117 19.3722 27.5333 18.9107L30.2 13.3467C30.2 13.3334 30.2 13.3187 30.2107 13.3054C30.2454 13.2142 30.2696 13.1194 30.2827 13.0227C30.3055 12.9508 30.3224 12.8773 30.3333 12.8027C30.3289 12.7159 30.3159 12.6297 30.2947 12.5454C30.2904 12.4675 30.2788 12.3903 30.26 12.3147C30.26 12.3027 30.2453 12.2947 30.24 12.2814C30.2347 12.268 30.24 12.2587 30.24 12.248C30.2037 12.1832 30.1617 12.1216 30.1147 12.064C30.0715 11.9858 30.0205 11.9121 29.9627 11.844C29.8838 11.7742 29.7965 11.7146 29.7027 11.6667C29.6558 11.6268 29.6059 11.5907 29.5533 11.5587L24.22 9.12269C23.5574 8.8506 22.7981 9.15071 22.5006 9.80234C22.2032 10.454 22.4737 11.2242 23.1133 11.5467L25.8747 12.8094C15.4791 18.3728 8.99245 29.2093 9.00001 41C9.00001 41.7364 9.59696 42.3334 10.3333 42.3334C11.0697 42.3334 11.6667 41.7364 11.6667 41C11.66 30.6179 17.1502 21.0081 26.0973 15.7414L25.1333 17.756C24.8155 18.4188 25.094 19.2138 25.756 19.5334Z" fill="#505050" stroke="#505050" stroke-width="2"/>
</svg>
