<svg width="80" height="75" viewBox="0 0 80 75" fill="none" xmlns="http://www.w3.org/2000/svg">
<path fill-rule="evenodd" clip-rule="evenodd" d="M37.602 22.7402V22.7402C37.602 21.1736 38.8553 19.9204 40.4218 19.9204C45.0171 19.9204 49.6124 19.9204 53.8422 19.9726C55.3043 17.9883 56.2443 16.1084 57.6542 14.8029C61.6751 10.9909 68.0458 11.0953 72.2233 14.9596C76.2964 18.7193 76.6097 25.0901 72.9544 29.6854C69.769 33.7063 63.4505 34.594 58.9074 31.6175C57.0275 30.3642 55.6176 28.641 54.8866 26.5522C54.6255 25.7689 54.2599 25.6123 53.4766 25.5601C49.1425 25.6123 44.8083 25.5601 40.4741 25.6123C38.8553 25.5601 37.602 24.3068 37.602 22.7402Z" fill="#1CCEDE"/>
<path fill-rule="evenodd" clip-rule="evenodd" d="M42.7198 46.6562C42.1225 43.8416 40.1097 41.5186 37.4231 40.3967L41.8329 36.1787H50.2049C51.2132 36.1787 52.0305 35.3969 52.0305 34.4324C52.0305 33.468 51.2132 32.6862 50.2049 32.6862H41.0767C40.5925 32.6862 40.1282 32.8702 39.7858 33.1977L35.5998 37.2016V13.4775H40.3205L47.6231 20.4625H41.0767C40.0685 20.4625 39.2511 21.2443 39.2511 22.2087C39.2511 23.1731 40.0685 23.955 41.0767 23.955H57.7375C58.5481 26.9676 61.4073 29.1937 64.81 29.1937C68.843 29.1937 72.1125 26.0664 72.1125 22.2087C72.1125 18.351 68.843 15.2237 64.81 15.2237C61.4073 15.2237 58.5481 17.4498 57.7375 20.4625H52.7867L42.3676 10.4965C42.0253 10.169 41.5609 9.98499 41.0767 9.98499H34.9765C33.4728 5.91556 29.4154 3 24.646 3C18.2189 3 13.6922 6.13353 13.6922 11.7312C13.6922 11.7938 13.693 11.8563 13.6945 11.9186C8.49791 13.0018 4.69961 18.649 4.56763 25.3409C1.81156 27.1613 0 30.582 0 34.4324C0 38.547 2.06859 42.1708 5.1478 43.8756C2.2027 47.2705 1.75998 52.4253 4.35226 56.72C6.7857 60.7516 11.4387 62.9372 15.8467 62.5446C15.6322 63.3259 15.5179 64.146 15.5179 64.9918C15.5179 70.2961 20.0134 74.5961 25.5589 74.5961C31.1043 74.5961 35.5998 70.2961 35.5998 64.9918V57.1336H42.1462L52.5652 67.0997C52.9076 67.4271 53.372 67.6111 53.8562 67.6111H57.5074C58.5157 67.6111 59.3331 66.8293 59.3331 65.8649C59.3331 64.9005 58.5157 64.1186 57.5074 64.1186H54.6124L44.1933 54.1526C43.8509 53.8251 43.3865 53.6412 42.9024 53.6412H41.0774C41.8747 52.6259 42.4459 51.4389 42.7198 50.1487H48.5307C49.3999 55.104 53.9055 58.8799 59.3331 58.8799C65.3827 58.8799 70.2868 54.189 70.2868 48.4024C70.2868 42.6159 65.3827 37.9249 59.3331 37.9249C53.9055 37.9249 49.3999 41.7008 48.5307 46.6562H42.7198ZM31.9487 34.4319V39.8453C29.3508 40.3497 27.1536 41.9094 25.8673 44.0363H22.8205C20.939 44.0363 19.029 44.7294 17.4363 45.8485C16.1054 43.2253 13.294 41.4169 10.0411 41.4169H9.12824C6.20424 41.4169 3.65135 38.3645 3.65135 34.4319C3.65135 30.4993 6.20424 27.4469 9.12824 27.4469H10.0411C12.5216 27.4469 14.6169 29.0242 15.2907 31.1874C13.8904 31.5321 12.5919 32.2296 11.5345 33.241C10.8215 33.923 10.8215 35.0286 11.5345 35.7106C12.2474 36.3925 13.4033 36.3925 14.1163 35.7106C14.985 34.8796 16.1393 34.4319 17.3436 34.4319C18.5479 34.4319 19.7022 34.8796 20.5709 35.7106C21.2838 36.3925 22.4398 36.3925 23.1527 35.7106C23.8657 35.0286 23.8657 33.923 23.1527 33.241C22.0011 32.1394 20.5635 31.4102 19.0198 31.1038C18.2417 27.0368 14.5177 23.9544 10.0411 23.9544H8.31785C8.86098 19.3795 11.4963 15.8976 14.5924 15.3107C15.9538 17.8506 18.7185 19.5888 21.9077 19.5888C22.9159 19.5888 23.7333 18.807 23.7333 17.8426C23.7333 16.8781 22.9159 16.0963 21.9077 16.0963C19.387 16.0963 17.3436 14.1418 17.3436 11.7307C17.3436 8.35032 20.0282 6.49197 24.6461 6.49197C28.6792 6.49197 31.9487 9.61925 31.9487 13.477V27.4463C30.423 26.3502 28.5267 25.7007 26.4718 25.7007C25.4635 25.7007 24.6461 26.4825 24.6461 27.4469C24.6461 28.4114 25.4635 29.1932 26.4718 29.1932C29.4966 29.1932 31.9487 31.5386 31.9487 34.4319ZM24.6912 47.5287H22.8205C21.0927 47.5287 19.0863 48.689 17.9926 50.248C17.5754 50.8427 17.3436 52.1021 17.3436 53.6406C17.3436 54.605 16.5262 55.3868 15.5179 55.3868C14.5097 55.3868 13.6923 54.605 13.6923 53.6406C13.6923 51.7773 13.9378 50.1716 14.5898 48.9152C14.3986 46.6724 12.4351 44.9094 10.041 44.9094H9.33979C6.19748 46.9401 5.31608 51.3312 7.51442 54.9732C9.77725 58.7221 14.7576 60.1724 18.2564 58.2402C18.3541 58.1862 18.4549 58.1418 18.5575 58.1068C20.3663 56.4235 22.836 55.3868 25.5589 55.3868C26.5672 55.3868 27.3846 56.1687 27.3846 57.1331C27.3846 58.0975 26.5672 58.8793 25.5589 58.8793C22.03 58.8793 19.1692 61.6157 19.1692 64.9912C19.1692 68.3667 22.03 71.1031 25.5589 71.1031C29.0879 71.1031 31.9486 68.3667 31.9486 64.9912V56.9584C27.7821 56.1494 24.6461 52.6259 24.6461 48.4019C24.6461 48.1072 24.6614 47.8159 24.6912 47.5287ZM66.6355 48.4024C66.6355 52.2601 63.366 55.3874 59.333 55.3874C55.2999 55.3874 52.0304 52.2601 52.0304 48.4024C52.0304 44.5447 55.2999 41.4174 59.333 41.4174C63.366 41.4174 66.6355 44.5447 66.6355 48.4024ZM33.7741 53.6416C36.7989 53.6416 39.251 51.2961 39.251 48.4028C39.251 45.5096 36.7989 43.1641 33.7741 43.1641C30.7493 43.1641 28.2972 45.5096 28.2972 48.4028C28.2972 51.2961 30.7493 53.6416 33.7741 53.6416ZM68.4612 22.2085C68.4612 24.1374 66.8264 25.701 64.8099 25.701C62.7934 25.701 61.1586 24.1374 61.1586 22.2085C61.1586 20.2797 62.7934 18.716 64.8099 18.716C66.8264 18.716 68.4612 20.2797 68.4612 22.2085ZM64.8099 64.1188H66.6356C67.6438 64.1188 68.4612 64.9006 68.4612 65.865C68.4612 66.8294 67.6438 67.6113 66.6356 67.6113H64.8099C63.8017 67.6113 62.9843 66.8294 62.9843 65.865C62.9843 64.9006 63.8017 64.1188 64.8099 64.1188ZM50.2049 8.23874C50.2049 11.132 52.657 13.4775 55.6818 13.4775C58.7066 13.4775 61.1587 11.132 61.1587 8.23874C61.1587 5.34546 58.7066 3 55.6818 3C52.657 3 50.2049 5.34546 50.2049 8.23874ZM55.6817 9.98446C56.69 9.98446 57.5074 9.20264 57.5074 8.23821C57.5074 7.27379 56.69 6.49197 55.6817 6.49197C54.6735 6.49197 53.8561 7.27379 53.8561 8.23821C53.8561 9.20264 54.6735 9.98446 55.6817 9.98446ZM37.4254 69.3575C37.4254 72.2508 39.8775 74.5963 42.9023 74.5963C45.9271 74.5963 48.3792 72.2508 48.3792 69.3575C48.3792 66.4642 45.9271 64.1188 42.9023 64.1188C39.8775 64.1188 37.4254 66.4642 37.4254 69.3575ZM42.9024 71.1032C43.9107 71.1032 44.728 70.3214 44.728 69.357C44.728 68.3926 43.9107 67.6107 42.9024 67.6107C41.8941 67.6107 41.0768 68.3926 41.0768 69.357C41.0768 70.3214 41.8941 71.1032 42.9024 71.1032ZM37.4254 4.74625C37.4254 5.71067 38.2428 6.49249 39.251 6.49249H44.7279C45.7362 6.49249 46.5536 5.71067 46.5536 4.74625C46.5536 3.78182 45.7362 3 44.7279 3H39.251C38.2428 3 37.4254 3.78182 37.4254 4.74625ZM59.333 53.6416C56.3082 53.6416 53.8561 51.2961 53.8561 48.4028C53.8561 45.5096 56.3082 43.1641 59.333 43.1641C62.3578 43.1641 64.8099 45.5096 64.8099 48.4028C64.8099 51.2961 62.3578 53.6416 59.333 53.6416ZM61.1587 48.4023C61.1587 49.3667 60.3414 50.1486 59.3331 50.1486C58.3248 50.1486 57.5075 49.3667 57.5075 48.4023C57.5075 47.4379 58.3248 46.6561 59.3331 46.6561C60.3414 46.6561 61.1587 47.4379 61.1587 48.4023Z" fill="#505050"/>
</svg>
