<svg width="81" height="65" viewBox="0 0 81 65" fill="none" xmlns="http://www.w3.org/2000/svg">
<path fill-rule="evenodd" clip-rule="evenodd" d="M51.0896 29.8657V64.5736H69.5817V17.6604L69.3409 17.3105L51.0896 29.8657ZM3.51953 46.291L22.0117 33.4296V64.573H3.51953V46.291ZM27.3046 29.7479L27.7733 29.4223L35.4784 40.6037L45.7976 33.5063V64.573H27.3046V29.7479Z" fill="#505050"/>
<path fill-rule="evenodd" clip-rule="evenodd" d="M64.7158 1.24687L65.7832 2.79919L67.7032 5.5903L51.0899 17.0174L45.797 20.6578L38.1929 25.8877L30.4564 14.6602L27.3048 16.855L22.0119 20.5414L3.5198 33.4182L0.5 35.5216L3.5198 39.8626L22.0119 26.9891L27.3048 23.3026L29.1149 22.042L36.8362 33.2461L45.7978 27.0828L51.0907 23.4424L69.5828 10.7224L70.7036 9.95152L73.6911 14.295L80.5 0L64.7158 1.24687Z" fill="#1CCEDE"/>
</svg>
