<svg width="80" height="55" viewBox="0 0 80 55" fill="none" xmlns="http://www.w3.org/2000/svg">
<path fill-rule="evenodd" clip-rule="evenodd" d="M3.46632 0.00194309C2.52931 0.087809 1.81455 0.854694 1.81861 1.76979V30.9117C1.81871 31.888 2.63267 32.6794 3.63677 32.6795H76.3633C77.3674 32.6794 78.1813 31.888 78.1814 30.9117V1.76979C78.1813 0.793478 77.3674 0.00204061 76.3633 0.00194309H3.63677C3.57998 -0.000647698 3.5231 -0.000647698 3.46632 0.00194309ZM5.45487 3.53731H74.5451V29.1435H70.9087V22.0997C70.92 21.5906 70.705 21.1015 70.3186 20.7576C69.9323 20.4137 69.4123 20.2485 68.8917 20.3043C67.955 20.4044 67.2521 21.1837 67.2724 22.0997V29.1435H63.6361V15.9123C63.6474 15.4031 63.4323 14.914 63.046 14.5701C62.6597 14.2262 62.1396 14.061 61.619 14.1168C60.6823 14.2169 59.9795 14.9962 59.9998 15.9123V29.1435H56.3634V22.0997C56.3747 21.5906 56.1597 21.1015 55.7733 20.7576C55.387 20.4137 54.867 20.2485 54.3464 20.3043C53.4097 20.4044 52.7068 21.1837 52.7271 22.0997V29.1435H49.0908V15.9123C49.1021 15.4031 48.887 14.914 48.5007 14.5701C48.1144 14.2262 47.5943 14.061 47.0737 14.1168C46.137 14.2169 45.4342 14.9962 45.4544 15.9123V29.1435H41.8181V22.0997C41.8294 21.5906 41.6144 21.1015 41.228 20.7576C40.8417 20.4137 40.3217 20.2485 39.8011 20.3043C38.8644 20.4044 38.1615 21.1837 38.1818 22.0997V29.1435H34.5455V15.9123C34.5567 15.4031 34.3417 14.914 33.9554 14.5701C33.5691 14.2262 33.049 14.061 32.5284 14.1168C31.5917 14.2169 30.8889 14.9962 30.9091 15.9123V29.1435H27.2728V22.0997C27.2841 21.5906 27.0691 21.1015 26.6827 20.7576C26.2964 20.4137 25.7764 20.2485 25.2558 20.3043C24.3191 20.4044 23.6162 21.1837 23.6365 22.0997V29.1435H20.0002V15.9123C20.0114 15.4031 19.7964 14.914 19.4101 14.5701C19.0238 14.2262 18.5037 14.061 17.9831 14.1168C17.0464 14.2169 16.3436 14.9962 16.3638 15.9123V29.1435H12.7275V22.0997C12.7388 21.5906 12.5238 21.1015 12.1374 20.7576C11.7511 20.4137 11.2311 20.2485 10.7105 20.3043C9.77378 20.4044 9.07092 21.1837 9.09119 22.0997V29.1435H5.45487V3.53731ZM0.000426503 38.8945C-0.0198195 37.9784 0.683033 37.1991 1.61973 37.099C2.14032 37.0433 2.66035 37.2085 3.04666 37.5523C3.43296 37.8962 3.64802 38.3853 3.63675 38.8945V53.0373C3.64604 53.6748 3.30154 54.2679 2.73518 54.5893C2.16883 54.9107 1.46835 54.9107 0.901994 54.5893C0.335636 54.2679 -0.00885839 53.6748 0.000426503 53.0373V38.8945ZM77.9825 37.099C77.0458 37.1991 76.343 37.9784 76.3632 38.8945V53.0373C76.3539 53.6748 76.6984 54.2679 77.2648 54.5893C77.8311 54.9107 78.5316 54.9107 79.098 54.5893C79.6643 54.2679 80.0088 53.6748 79.9995 53.0373V38.8945C80.0108 38.3853 79.7958 37.8962 79.4095 37.5523C79.0231 37.2085 78.5031 37.0433 77.9825 37.099ZM16.0514 37.5684C16.3283 37.3254 16.6754 37.1711 17.0457 37.1264V37.1266C17.5658 37.0629 18.089 37.2206 18.4808 37.5593C18.8727 37.898 19.0951 38.3847 19.0911 38.8944V44.198H60.9088V38.8944C60.906 37.9696 61.6367 37.1989 62.585 37.1266C63.0826 37.0856 63.5758 37.2454 63.9486 37.5686L72.1303 44.64C72.512 44.9752 72.7299 45.4519 72.7299 45.952C72.7299 46.4522 72.512 46.9289 72.1303 47.2641L63.9486 54.3355C63.4173 54.8039 62.6525 54.9249 61.9959 54.6445C61.3393 54.3641 60.9135 53.7346 60.9088 53.0373V47.7337H19.0911V53.0373C19.0864 53.7345 18.6606 54.364 18.004 54.6444C17.3474 54.9248 16.5826 54.8037 16.0514 54.3353L7.86962 47.264C7.4879 46.9287 7.27006 46.452 7.27006 45.9519C7.27006 45.4517 7.4879 44.975 7.86962 44.6398L16.0514 37.5684ZM15.4547 42.8171V49.0874L11.8184 45.966L15.4547 42.8171ZM68.1816 45.966L64.5453 42.8171V49.0874L68.1816 45.966Z" fill="#1CCEDE"/>
<path fill-rule="evenodd" clip-rule="evenodd" d="M3.46632 0.00194309C2.52931 0.087809 1.81455 0.854694 1.81861 1.76979V30.9117C1.81871 31.888 2.63267 32.6794 3.63677 32.6795H76.3633C77.3674 32.6794 78.1813 31.888 78.1814 30.9117V1.76979C78.1813 0.793478 77.3674 0.00204061 76.3633 0.00194309H3.63677C3.57998 -0.000647698 3.5231 -0.000647698 3.46632 0.00194309ZM5.45487 3.53731H74.5451V29.1435H70.9087V22.0997C70.92 21.5906 70.705 21.1015 70.3186 20.7576C69.9323 20.4137 69.4123 20.2485 68.8917 20.3043C67.955 20.4044 67.2521 21.1837 67.2724 22.0997V29.1435H63.6361V15.9123C63.6474 15.4031 63.4323 14.914 63.046 14.5701C62.6597 14.2262 62.1396 14.061 61.619 14.1168C60.6823 14.2169 59.9795 14.9962 59.9998 15.9123V29.1435H56.3634V22.0997C56.3747 21.5906 56.1597 21.1015 55.7733 20.7576C55.387 20.4137 54.867 20.2485 54.3464 20.3043C53.4097 20.4044 52.7068 21.1837 52.7271 22.0997V29.1435H49.0908V15.9123C49.1021 15.4031 48.887 14.914 48.5007 14.5701C48.1144 14.2262 47.5943 14.061 47.0737 14.1168C46.137 14.2169 45.4342 14.9962 45.4544 15.9123V29.1435H41.8181V22.0997C41.8294 21.5906 41.6144 21.1015 41.228 20.7576C40.8417 20.4137 40.3217 20.2485 39.8011 20.3043C38.8644 20.4044 38.1615 21.1837 38.1818 22.0997V29.1435H34.5455V15.9123C34.5567 15.4031 34.3417 14.914 33.9554 14.5701C33.5691 14.2262 33.049 14.061 32.5284 14.1168C31.5917 14.2169 30.8889 14.9962 30.9091 15.9123V29.1435H27.2728V22.0997C27.2841 21.5906 27.0691 21.1015 26.6827 20.7576C26.2964 20.4137 25.7764 20.2485 25.2558 20.3043C24.3191 20.4044 23.6162 21.1837 23.6365 22.0997V29.1435H20.0002V15.9123C20.0114 15.4031 19.7964 14.914 19.4101 14.5701C19.0238 14.2262 18.5037 14.061 17.9831 14.1168C17.0464 14.2169 16.3436 14.9962 16.3638 15.9123V29.1435H12.7275V22.0997C12.7388 21.5906 12.5238 21.1015 12.1374 20.7576C11.7511 20.4137 11.2311 20.2485 10.7105 20.3043C9.77378 20.4044 9.07092 21.1837 9.09119 22.0997V29.1435H5.45487V3.53731ZM0.000426503 38.8945C-0.0198195 37.9784 0.683033 37.1991 1.61973 37.099C2.14032 37.0433 2.66035 37.2085 3.04666 37.5523C3.43296 37.8962 3.64802 38.3853 3.63675 38.8945V53.0373C3.64604 53.6748 3.30154 54.2679 2.73518 54.5893C2.16883 54.9107 1.46835 54.9107 0.901994 54.5893C0.335636 54.2679 -0.00885839 53.6748 0.000426503 53.0373V38.8945ZM77.9825 37.099C77.0458 37.1991 76.343 37.9784 76.3632 38.8945V53.0373C76.3539 53.6748 76.6984 54.2679 77.2648 54.5893C77.8311 54.9107 78.5316 54.9107 79.098 54.5893C79.6643 54.2679 80.0088 53.6748 79.9995 53.0373V38.8945C80.0108 38.3853 79.7958 37.8962 79.4095 37.5523C79.0231 37.2085 78.5031 37.0433 77.9825 37.099ZM16.0514 37.5684C16.3283 37.3254 16.6754 37.1711 17.0457 37.1264V37.1266C17.5658 37.0629 18.089 37.2206 18.4808 37.5593C18.8727 37.898 19.0951 38.3847 19.0911 38.8944V44.198H60.9088V38.8944C60.906 37.9696 61.6367 37.1989 62.585 37.1266C63.0826 37.0856 63.5758 37.2454 63.9486 37.5686L72.1303 44.64C72.512 44.9752 72.7299 45.4519 72.7299 45.952C72.7299 46.4522 72.512 46.9289 72.1303 47.2641L63.9486 54.3355C63.4173 54.8039 62.6525 54.9249 61.9959 54.6445C61.3393 54.3641 60.9135 53.7346 60.9088 53.0373V47.7337H19.0911V53.0373C19.0864 53.7345 18.6606 54.364 18.004 54.6444C17.3474 54.9248 16.5826 54.8037 16.0514 54.3353L7.86962 47.264C7.4879 46.9287 7.27006 46.452 7.27006 45.9519C7.27006 45.4517 7.4879 44.975 7.86962 44.6398L16.0514 37.5684ZM15.4547 42.8171V49.0874L11.8184 45.966L15.4547 42.8171ZM68.1816 45.966L64.5453 42.8171V49.0874L68.1816 45.966Z" fill="#1CCEDE"/>
<path fill-rule="evenodd" clip-rule="evenodd" d="M1.81838 1.76979C1.81432 0.854694 2.52909 0.087809 3.46609 0.00194309C3.52287 -0.000647698 3.57975 -0.000647698 3.63654 0.00194309H76.363C77.3671 0.00204061 78.1811 0.793478 78.1812 1.76979V30.9117C78.1811 31.888 77.3671 32.6794 76.363 32.6795H3.63654C2.63244 32.6794 1.81848 31.888 1.81838 30.9117V1.76979ZM74.5448 3.53731H5.45462V29.1435H9.09095V22.0997C9.07068 21.1837 9.77354 20.4044 10.7103 20.3043C11.2308 20.2485 11.7509 20.4137 12.1372 20.7576C12.5235 21.1015 12.7386 21.5906 12.7273 22.0997V29.1435H16.3636V15.9123C16.3433 14.9962 17.0462 14.2169 17.9829 14.1168C18.5035 14.061 19.0235 14.2262 19.4098 14.5701C19.7962 14.914 20.0112 15.4031 19.9999 15.9123V29.1435H23.6363V22.0997C23.616 21.1837 24.3188 20.4044 25.2556 20.3043C25.7761 20.2485 26.2962 20.4137 26.6825 20.7576C27.0688 21.1015 27.2839 21.5906 27.2726 22.0997V29.1435H30.9089V15.9123C30.8886 14.9962 31.5915 14.2169 32.5282 14.1168C33.0488 14.061 33.5688 14.2262 33.9551 14.5701C34.3415 14.914 34.5565 15.4031 34.5452 15.9123V29.1435H38.1816V22.0997C38.1613 21.1837 38.8641 20.4044 39.8009 20.3043C40.3215 20.2485 40.8415 20.4137 41.2278 20.7576C41.6141 21.1015 41.8292 21.5906 41.8179 22.0997V29.1435H45.4542V15.9123C45.4339 14.9962 46.1368 14.2169 47.0735 14.1168C47.5941 14.061 48.1141 14.2262 48.5005 14.5701C48.8868 14.914 49.1018 15.4031 49.0905 15.9123V29.1435H52.7269V22.0997C52.7066 21.1837 53.4094 20.4044 54.3462 20.3043C54.8667 20.2485 55.3868 20.4137 55.7731 20.7576C56.1594 21.1015 56.3745 21.5906 56.3632 22.0997V29.1435H59.9995V15.9123C59.9792 14.9962 60.6821 14.2169 61.6188 14.1168C62.1394 14.061 62.6594 14.2262 63.0457 14.5701C63.4321 14.914 63.6471 15.4031 63.6358 15.9123V29.1435H67.2722V22.0997C67.2519 21.1837 67.9547 20.4044 68.8915 20.3043C69.4121 20.2485 69.9321 20.4137 70.3184 20.7576C70.7047 21.1015 70.9198 21.5906 70.9085 22.0997V29.1435H74.5448V3.53731Z" fill="#1CCEDE"/>
<path fill-rule="evenodd" clip-rule="evenodd" d="M1.81838 1.76979C1.81432 0.854694 2.52909 0.087809 3.46609 0.00194309C3.52287 -0.000647698 3.57975 -0.000647698 3.63654 0.00194309H76.363C77.3671 0.00204061 78.1811 0.793478 78.1812 1.76979V30.9117C78.1811 31.888 77.3671 32.6794 76.363 32.6795H3.63654C2.63244 32.6794 1.81848 31.888 1.81838 30.9117V1.76979ZM74.5448 3.53731H5.45462V29.1435H9.09095V22.0997C9.07068 21.1837 9.77354 20.4044 10.7103 20.3043C11.2308 20.2485 11.7509 20.4137 12.1372 20.7576C12.5235 21.1015 12.7386 21.5906 12.7273 22.0997V29.1435H16.3636V15.9123C16.3433 14.9962 17.0462 14.2169 17.9829 14.1168C18.5035 14.061 19.0235 14.2262 19.4098 14.5701C19.7962 14.914 20.0112 15.4031 19.9999 15.9123V29.1435H23.6363V22.0997C23.616 21.1837 24.3188 20.4044 25.2556 20.3043C25.7761 20.2485 26.2962 20.4137 26.6825 20.7576C27.0688 21.1015 27.2839 21.5906 27.2726 22.0997V29.1435H30.9089V15.9123C30.8886 14.9962 31.5915 14.2169 32.5282 14.1168C33.0488 14.061 33.5688 14.2262 33.9551 14.5701C34.3415 14.914 34.5565 15.4031 34.5452 15.9123V29.1435H38.1816V22.0997C38.1613 21.1837 38.8641 20.4044 39.8009 20.3043C40.3215 20.2485 40.8415 20.4137 41.2278 20.7576C41.6141 21.1015 41.8292 21.5906 41.8179 22.0997V29.1435H45.4542V15.9123C45.4339 14.9962 46.1368 14.2169 47.0735 14.1168C47.5941 14.061 48.1141 14.2262 48.5005 14.5701C48.8868 14.914 49.1018 15.4031 49.0905 15.9123V29.1435H52.7269V22.0997C52.7066 21.1837 53.4094 20.4044 54.3462 20.3043C54.8667 20.2485 55.3868 20.4137 55.7731 20.7576C56.1594 21.1015 56.3745 21.5906 56.3632 22.0997V29.1435H59.9995V15.9123C59.9792 14.9962 60.6821 14.2169 61.6188 14.1168C62.1394 14.061 62.6594 14.2262 63.0457 14.5701C63.4321 14.914 63.6471 15.4031 63.6358 15.9123V29.1435H67.2722V22.0997C67.2519 21.1837 67.9547 20.4044 68.8915 20.3043C69.4121 20.2485 69.9321 20.4137 70.3184 20.7576C70.7047 21.1015 70.9198 21.5906 70.9085 22.0997V29.1435H74.5448V3.53731Z" fill="#505050"/>
</svg>
