<!DOCTYPE svg PUBLIC "-//W3C//DTD SVG 20010904//EN" "http://www.w3.org/TR/2001/REC-SVG-20010904/DTD/svg10.dtd">
<svg version="1.0" xmlns="http://www.w3.org/2000/svg" width="800px" height="443px" viewBox="0 0 8000 4430" preserveAspectRatio="xMidYMid meet">
<g id="layer101" fill="#030303" stroke="none">
 <path d="M0 2215 l0 -2215 4000 0 4000 0 0 2215 0 2215 -4000 0 -4000 0 0 -2215z"/>
 </g>
<g id="layer102" fill="#ffffff" stroke="none">
 <path d="M0 2215 l0 -2215 4000 0 4000 0 0 2215 0 2215 -4000 0 -4000 0 0 -2215z m980 162 c8 -6 27 -22 43 -36 l27 -25 0 37 0 37 90 0 c89 0 90 0 90 -25 0 -16 -6 -25 -15 -25 -29 0 -35 -51 -35 -296 l0 -244 -85 0 c-84 0 -85 0 -85 25 0 15 6 25 14 25 23 0 26 24 26 204 0 216 -12 256 -78 256 -40 0 -43 -19 -45 -267 l-2 -238 -87 -3 c-86 -3 -88 -2 -88 20 0 13 9 29 20 36 19 11 20 23 20 215 0 111 5 218 10 238 11 38 43 74 75 82 27 7 86 -2 105 -16z m360 8 c16 -19 30 -19 89 1 116 37 218 -50 209 -177 -5 -73 -35 -114 -134 -182 -132 -91 -158 -133 -113 -178 45 -45 122 5 157 103 16 46 34 64 53 52 5 -3 9 -52 9 -110 0 -90 -2 -104 -17 -104 -9 0 -24 7 -34 16 -15 14 -22 14 -68 -2 -30 -10 -64 -14 -82 -10 -106 21 -152 159 -86 258 13 18 64 62 114 98 102 73 128 105 118 150 -8 35 -31 50 -78 50 -55 0 -109 -71 -143 -187 -2 -7 -13 -13 -24 -13 -19 0 -20 6 -20 125 0 116 1 125 19 125 10 0 24 -7 31 -15z m1447 5 c23 0 86 -64 104 -105 10 -22 19 -55 19 -73 0 -50 -29 -38 -46 17 -18 62 -58 101 -104 101 -62 0 -100 -65 -100 -172 l0 -47 128 -3 127 -3 -3 -55 c-6 -122 -64 -226 -138 -250 -77 -26 -159 8 -208 84 -39 60 -50 110 -51 221 0 83 4 109 23 151 42 92 124 149 202 139 19 -2 40 -4 47 -5z m234 -6 c14 -17 33 -16 109 6 41 12 50 11 92 -8 117 -52 138 -207 40 -300 -15 -13 -59 -46 -99 -73 -80 -55 -103 -81 -103 -121 0 -29 31 -58 62 -58 29 0 86 58 104 108 40 110 64 94 64 -44 0 -97 -1 -104 -20 -104 -11 0 -20 4 -20 9 0 18 -30 20 -71 6 -56 -20 -88 -19 -127 5 -48 30 -72 75 -72 140 0 86 32 128 162 215 76 51 98 77 98 119 0 42 -26 66 -70 66 -63 0 -109 -51 -141 -158 -10 -33 -17 -42 -32 -40 -17 3 -19 12 -18 116 0 61 0 117 1 122 0 15 26 12 41 -6z m411 -1 c17 -16 23 -16 88 1 l70 18 47 -23 c114 -57 134 -194 41 -290 -21 -22 -70 -59 -108 -84 -38 -24 -76 -55 -85 -69 -23 -35 -16 -77 17 -96 25 -14 31 -13 63 4 28 15 44 36 71 93 20 41 41 72 47 70 8 -2 13 -41 15 -110 3 -102 2 -107 -18 -107 -11 0 -20 4 -20 9 0 18 -30 20 -71 6 -23 -8 -53 -15 -68 -15 -36 0 -87 33 -111 72 -24 40 -27 126 -6 167 18 34 75 86 154 140 33 22 68 51 76 63 21 29 20 77 -1 100 -20 22 -80 24 -111 3 -28 -20 -67 -88 -82 -142 -8 -32 -16 -43 -30 -43 -19 0 -20 7 -20 125 0 131 4 142 42 108z m679 -8 l30 -24 52 20 c119 48 212 18 262 -85 24 -48 27 -65 24 -128 -6 -107 -36 -160 -168 -294 -164 -166 -197 -229 -150 -288 16 -20 29 -26 59 -26 68 0 124 66 154 183 11 45 17 52 40 55 l27 3 -3 -143 c-3 -156 -6 -162 -58 -126 -24 17 -27 16 -85 -4 -72 -25 -116 -20 -168 20 -53 41 -77 96 -77 178 1 100 22 139 149 268 134 137 177 194 186 245 18 105 -90 156 -176 84 -31 -26 -76 -108 -98 -175 -10 -30 -18 -38 -37 -38 l-24 0 0 150 c0 167 4 174 61 125z m645 9 c41 -19 74 -83 74 -142 0 -35 -3 -42 -20 -42 -15 0 -20 7 -20 29 0 15 -5 42 -11 60 -9 24 -16 31 -33 29 -21 -3 -21 -7 -24 -235 l-2 -233 50 0 c47 0 50 -2 50 -25 0 -23 -3 -25 -50 -25 l-50 0 0 -125 0 -125 -30 0 c-27 0 -30 3 -30 30 0 57 -40 140 -91 189 -57 54 -63 81 -20 81 l29 0 4 238 c3 259 6 272 63 298 40 18 70 17 111 -2z m261 5 c15 -5 42 -24 59 -40 l30 -29 14 24 c18 34 73 59 111 51 40 -9 69 -57 69 -113 0 -50 -22 -54 -30 -6 -3 17 -11 29 -20 29 -13 0 -16 -33 -20 -210 -5 -227 -9 -244 -64 -281 -65 -42 -205 -23 -261 36 -37 39 -40 94 -6 121 70 57 163 -29 100 -92 -26 -26 -13 -39 38 -39 42 0 51 18 54 105 l2 68 -49 22 c-117 53 -186 135 -187 223 -1 59 23 104 65 125 39 20 57 21 95 6z m1118 -25 l35 -26 0 26 c0 24 3 26 44 26 87 0 136 -11 136 -31 0 -11 -7 -19 -15 -19 -32 0 -35 -38 -35 -441 l0 -402 -37 7 c-21 3 -64 6 -95 6 -51 0 -58 2 -58 20 0 11 6 20 14 20 8 0 22 7 30 16 13 12 16 41 16 145 0 71 -3 129 -7 129 -4 0 -17 -10 -31 -22 -17 -17 -36 -23 -70 -23 -65 0 -103 30 -144 113 -32 65 -33 70 -33 192 0 109 3 132 23 175 55 120 142 154 227 89z m407 26 c20 -6 48 -25 63 -42 14 -17 27 -29 29 -27 2 2 9 15 15 27 31 59 130 61 164 3 22 -37 23 -111 2 -111 -8 0 -15 9 -15 19 0 30 -11 51 -25 51 -11 0 -14 -44 -17 -207 -3 -239 -8 -255 -78 -291 -138 -72 -352 57 -255 153 30 31 71 32 102 3 28 -27 30 -61 3 -88 -26 -26 -18 -40 22 -40 53 0 68 23 68 105 l0 71 -54 23 c-106 44 -185 138 -186 221 0 51 29 102 70 122 41 21 43 21 92 8z m941 -3 c18 -8 38 -21 46 -30 19 -24 31 -21 31 8 0 23 3 25 48 25 81 0 122 -10 122 -31 0 -10 -9 -21 -20 -24 -20 -6 -20 -15 -20 -422 l0 -416 -46 7 c-26 3 -69 6 -95 6 -41 0 -49 3 -49 18 0 11 11 24 24 30 24 11 25 14 28 147 2 74 2 135 1 135 -1 0 -19 -11 -39 -25 -46 -31 -91 -32 -135 -2 -75 50 -109 140 -109 287 0 183 61 292 168 299 7 1 27 -5 45 -12z m-6910 -40 c70 -35 108 -92 115 -174 9 -108 -56 -197 -167 -230 l-55 -15 45 -18 c62 -23 108 -59 129 -100 57 -114 21 -221 -92 -271 -47 -21 -71 -24 -225 -27 -171 -4 -173 -4 -173 17 0 14 9 25 25 31 l25 10 0 375 0 375 -25 12 c-14 6 -25 20 -25 30 0 18 9 19 183 16 176 -3 184 -4 240 -31z m1347 14 c0 -11 -8 -22 -19 -26 -27 -8 -31 -48 -31 -307 l0 -228 -85 0 c-70 0 -87 3 -92 16 -4 11 3 23 20 36 l27 20 0 223 0 223 -27 20 c-44 32 -22 42 98 42 101 0 109 -1 109 -19z m286 7 c4 -6 -4 -19 -19 -30 l-27 -20 0 -177 c0 -184 8 -234 40 -251 29 -16 58 -12 70 9 6 12 10 110 10 250 l0 231 90 0 c79 0 90 -2 90 -18 0 -9 -9 -23 -19 -29 -18 -11 -20 -28 -23 -230 -3 -245 -8 -266 -70 -296 -49 -24 -100 -14 -148 29 -37 34 -51 41 -49 27 1 -5 1 -20 0 -35 l-1 -28 -85 0 c-83 0 -85 1 -85 24 0 15 7 26 20 29 19 5 20 14 20 236 0 220 -1 231 -20 243 -11 7 -20 21 -20 30 0 16 12 18 109 18 72 0 112 -4 117 -12z m3354 -7 c0 -11 -9 -22 -19 -26 -10 -3 -21 -16 -23 -30 -10 -49 -8 -282 2 -335 14 -78 65 -114 104 -74 14 13 16 50 16 250 l0 234 90 0 c72 0 90 -3 90 -15 0 -8 -9 -19 -19 -25 -18 -9 -20 -25 -23 -227 -3 -194 -5 -222 -23 -258 -38 -75 -130 -82 -203 -15 -18 16 -35 30 -38 30 -2 0 -4 -16 -4 -35 l0 -35 -85 0 c-82 0 -85 1 -85 23 0 12 9 28 20 35 19 12 20 23 20 237 0 214 -1 225 -20 237 -11 7 -20 21 -20 30 0 16 12 18 110 18 102 0 110 -1 110 -19z m1550 1 c0 -11 -13 -24 -32 -33 l-33 -14 -3 -105 c-3 -114 9 -218 34 -279 l15 -38 29 28 c35 35 60 37 96 6 47 -41 29 -116 -32 -131 -37 -10 -86 18 -117 66 l-27 42 0 -52 0 -53 -92 3 c-77 3 -93 6 -96 20 -2 10 8 22 25 30 l28 13 3 228 2 227 -25 12 c-14 6 -25 19 -25 30 0 16 10 18 125 18 114 0 125 -2 125 -18z m-5281 -717 c47 -24 55 -74 19 -112 -30 -33 -80 -31 -107 3 -34 43 -25 86 24 112 26 15 31 15 64 -3z"/>
 <path d="M2662 1978 c6 -92 21 -134 51 -144 35 -11 54 25 62 120 4 47 4 90 0 96 -3 5 -31 10 -62 10 l-56 0 5 -82z"/>
 <path d="M5006 2305 c-37 -38 -8 -182 45 -219 43 -29 46 -23 42 82 -3 72 -9 103 -22 122 -22 31 -44 36 -65 15z"/>
 <path d="M6067 2318 c-30 -23 -37 -68 -37 -226 0 -129 3 -163 18 -192 22 -46 58 -51 92 -15 24 26 25 33 28 183 4 177 0 210 -29 240 -22 25 -47 28 -72 10z"/>
 <path d="M6536 2304 c-20 -20 -21 -112 -2 -158 13 -31 59 -76 77 -76 5 0 9 41 9 90 0 95 -14 142 -45 154 -22 8 -21 8 -39 -10z"/>
 <path d="M7450 2312 c-17 -13 -24 -35 -32 -97 -11 -90 -4 -264 13 -313 19 -55 88 -52 109 4 6 14 10 104 10 200 0 172 0 175 -25 199 -29 30 -45 31 -75 7z"/>
 <path d="M372 2328 c-8 -8 -12 -66 -12 -195 l0 -183 29 0 c47 0 94 39 114 95 20 58 18 192 -3 238 -23 47 -99 74 -128 45z"/>
 <path d="M360 1737 c0 -167 1 -176 20 -182 29 -9 83 11 99 37 19 30 26 171 12 224 -14 51 -47 83 -95 91 l-36 6 0 -176z"/>
 </g>

</svg>