<svg width="368" height="51" viewBox="0 0 368 51" fill="none" xmlns="http://www.w3.org/2000/svg">
<path d="M0.0144562 0.499997H8.21446V41H0.0144562V0.499997ZM14.1176 12.1H21.4676V14.5C23.4009 12.5333 25.6676 11.55 28.2676 11.55C29.4009 11.55 30.3842 11.85 31.2176 12.45C32.0842 13.0167 32.7342 13.8833 33.1676 15.05C35.2342 12.7167 37.6842 11.55 40.5176 11.55C42.1842 11.55 43.5009 12.1667 44.4676 13.4C45.4676 14.6 45.9676 16.3 45.9676 18.5V41H38.6676V19.25C38.6676 18.3167 38.5009 17.6667 38.1676 17.3C37.8676 16.9 37.4009 16.7 36.7676 16.7C36.3342 16.7 35.8342 16.8167 35.2676 17.05C34.7342 17.2833 34.2176 17.6167 33.7176 18.05V18.5V41H26.4176V19.25C26.4176 18.3167 26.2509 17.6667 25.9176 17.3C25.6176 16.9 25.1509 16.7 24.5176 16.7C24.0842 16.7 23.5842 16.8167 23.0176 17.05C22.4842 17.2833 21.9676 17.6167 21.4676 18.05V41H14.1176V12.1ZM56.9828 41.5C55.6495 41.5 54.4828 41.1667 53.4828 40.5C52.4828 39.8333 51.7162 38.9667 51.1828 37.9C50.6828 36.8 50.4328 35.6667 50.4328 34.5C50.4328 32.2667 50.9828 30.4333 52.0828 29C53.1828 27.5667 54.4995 26.45 56.0328 25.65C57.5995 24.85 59.6662 23.9833 62.2328 23.05V20.35C62.2328 19.3167 62.0828 18.5333 61.7828 18C61.5162 17.4667 61.0162 17.2 60.2828 17.2C59.5495 17.2 59.0328 17.4333 58.7328 17.9C58.4328 18.3667 58.2495 19.0333 58.1828 19.9L58.0328 21.9L50.9328 21.6C51.0662 18.1667 51.9495 15.65 53.5828 14.05C55.2162 12.4167 57.6662 11.6 60.9328 11.6C63.7662 11.6 65.8995 12.3833 67.3328 13.95C68.7662 15.5167 69.4828 17.6667 69.4828 20.4V33.85C69.4828 36.1167 69.6495 38.5 69.9828 41H63.2328C63.0995 40.0333 62.8828 38.65 62.5828 36.85C62.1828 38.1833 61.4995 39.3 60.5328 40.2C59.5995 41.0667 58.4162 41.5 56.9828 41.5ZM59.6828 36.15C60.1828 36.15 60.6495 35.9833 61.0828 35.65C61.5495 35.3167 61.9328 34.9333 62.2328 34.5V26.55C60.6662 27.45 59.4662 28.3833 58.6328 29.35C57.7995 30.3167 57.3828 31.5 57.3828 32.9C57.3828 33.9333 57.5828 34.7333 57.9828 35.3C58.3828 35.8667 58.9495 36.15 59.6828 36.15ZM83.6238 50.75C80.4238 50.75 77.8905 50.2667 76.0238 49.3C74.1905 48.3333 73.2738 46.9 73.2738 45C73.2738 42.4667 74.7572 40.55 77.7238 39.25C75.1905 38.5833 73.9238 37.1667 73.9238 35C73.9238 33.9333 74.1738 32.9833 74.6738 32.15C75.2072 31.3167 76.0238 30.4167 77.1238 29.45C76.1572 28.6167 75.4238 27.5833 74.9238 26.35C74.4572 25.0833 74.2238 23.55 74.2238 21.75C74.2238 18.45 75.0572 15.9333 76.7238 14.2C78.4238 12.4667 80.8738 11.6 84.0738 11.6C87.0405 11.6 89.2572 12.4333 90.7238 14.1C91.0572 13.5333 91.5405 12.9833 92.1738 12.45C92.8072 11.9167 93.5238 11.4667 94.3238 11.1L95.3238 10.6L97.1238 14.4C96.6238 14.5667 95.8738 14.8667 94.8738 15.3C93.8738 15.7 93.0905 16.0667 92.5238 16.4C92.8572 17.1 93.1072 17.9333 93.2738 18.9C93.4738 19.8667 93.5738 20.8333 93.5738 21.8C93.5738 24.9667 92.7738 27.4167 91.1738 29.15C89.6072 30.8833 87.2405 31.75 84.0738 31.75C82.4072 31.75 80.9238 31.5167 79.6238 31.05C79.0905 31.7167 78.8238 32.3333 78.8238 32.9C78.8238 33.3 79.0238 33.6167 79.4238 33.85C79.8238 34.0833 80.5072 34.25 81.4738 34.35L88.4238 35.1C93.1572 35.6333 95.5238 38.1167 95.5238 42.55C95.5238 45.3167 94.5738 47.3667 92.6738 48.7C90.8072 50.0667 87.7905 50.75 83.6238 50.75ZM84.0738 27.15C85.0738 27.15 85.7405 26.7667 86.0738 26C86.4072 25.2 86.5738 23.7833 86.5738 21.75C86.5738 19.6833 86.4072 18.25 86.0738 17.45C85.7405 16.6167 85.0738 16.2 84.0738 16.2C83.0738 16.2 82.3905 16.6167 82.0238 17.45C81.6905 18.2833 81.5238 19.7167 81.5238 21.75C81.5238 23.6833 81.6905 25.0667 82.0238 25.9C82.3905 26.7333 83.0738 27.15 84.0738 27.15ZM84.5738 45.25C86.5072 45.25 87.9238 45.0667 88.8238 44.7C89.7572 44.3667 90.2238 43.75 90.2238 42.85C90.2238 42.0833 89.9238 41.5167 89.3238 41.15C88.7238 40.8167 87.6072 40.5833 85.9738 40.45L80.7738 39.9C80.2072 40.4 79.7572 40.8667 79.4238 41.3C79.1238 41.7667 78.9738 42.2667 78.9738 42.8C78.9738 43.6333 79.4072 44.25 80.2738 44.65C81.1405 45.05 82.5738 45.25 84.5738 45.25ZM108.241 41.5C105.075 41.5 102.658 40.6333 100.991 38.9C99.3581 37.1667 98.5414 34.6667 98.5414 31.4V21.7C98.5414 18.4333 99.3747 15.9333 101.041 14.2C102.708 12.4667 105.108 11.6 108.241 11.6C111.475 11.6 113.841 12.4667 115.341 14.2C116.841 15.9333 117.591 18.5 117.591 21.9V26.95H106.041V32.55C106.041 33.7833 106.225 34.6833 106.591 35.25C106.991 35.8167 107.558 36.1 108.291 36.1C109.791 36.1 110.541 35.0167 110.541 32.85V30.05H117.541V32.55C117.541 35.45 116.741 37.6667 115.141 39.2C113.541 40.7333 111.241 41.5 108.241 41.5ZM110.541 23.35V20.55C110.541 19.2833 110.358 18.3833 109.991 17.85C109.625 17.2833 109.041 17 108.241 17C107.475 17 106.908 17.3 106.541 17.9C106.208 18.5 106.041 19.5667 106.041 21.1V23.35H110.541ZM130.691 41.5C128.191 41.5 126.124 40.9 124.491 39.7C122.857 38.4667 121.607 36.5833 120.741 34.05L126.041 31.85C127.041 34.8167 128.457 36.3 130.291 36.3C130.991 36.3 131.507 36.15 131.841 35.85C132.207 35.5167 132.391 35.0667 132.391 34.5C132.391 33.7333 132.141 33.05 131.641 32.45C131.174 31.85 130.224 30.9333 128.791 29.7L126.091 27.4C124.491 26.0333 123.307 24.7667 122.541 23.6C121.774 22.4333 121.391 21.0333 121.391 19.4C121.391 17.8667 121.774 16.5167 122.541 15.35C123.307 14.15 124.341 13.2333 125.641 12.6C126.974 11.9333 128.424 11.6 129.991 11.6C132.324 11.6 134.241 12.2667 135.741 13.6C137.274 14.9 138.324 16.7333 138.891 19.1L133.991 21.3C133.691 20.1 133.207 19.0833 132.541 18.25C131.874 17.3833 131.091 16.95 130.191 16.95C129.591 16.95 129.107 17.1333 128.741 17.5C128.374 17.8333 128.191 18.2833 128.191 18.85C128.191 19.4167 128.474 20.0333 129.041 20.7C129.607 21.3333 130.491 22.1667 131.691 23.2L134.391 25.6C135.957 26.9333 137.174 28.2167 138.041 29.45C138.941 30.6833 139.391 32.1167 139.391 33.75C139.391 35.35 138.991 36.7333 138.191 37.9C137.424 39.0667 136.374 39.9667 135.041 40.6C133.707 41.2 132.257 41.5 130.691 41.5ZM164.495 41.35C161.595 41.35 159.578 40.7 158.445 39.4C157.345 38.1 156.795 36.1167 156.795 33.45V17.05H153.945V12.1H156.795V3.4H164.445V12.1H168.645V17.05H164.445V32.7C164.445 34.4 165.295 35.25 166.995 35.25C167.895 35.25 168.612 35.1833 169.145 35.05V40.95C167.378 41.2167 165.828 41.35 164.495 41.35ZM182.382 41.5C179.249 41.5 176.832 40.6667 175.132 39C173.466 37.3333 172.632 34.9167 172.632 31.75V21.35C172.632 18.1833 173.466 15.7667 175.132 14.1C176.832 12.4333 179.249 11.6 182.382 11.6C185.516 11.6 187.916 12.4333 189.582 14.1C191.282 15.7667 192.132 18.1833 192.132 21.35V31.75C192.132 34.9167 191.282 37.3333 189.582 39C187.916 40.6667 185.516 41.5 182.382 41.5ZM182.432 36.4C183.299 36.4 183.882 36.0667 184.182 35.4C184.516 34.7 184.682 33.6667 184.682 32.3V20.85C184.682 19.4833 184.516 18.45 184.182 17.75C183.882 17.05 183.299 16.7 182.432 16.7C181.532 16.7 180.916 17.0667 180.582 17.8C180.249 18.5 180.082 19.5167 180.082 20.85V32.3C180.082 33.6333 180.249 34.65 180.582 35.35C180.916 36.05 181.532 36.4 182.432 36.4ZM210.218 0.499997H218.418V41H210.218V0.499997ZM224.321 12.1H231.821V15C234.154 12.7333 236.487 11.6 238.821 11.6C240.487 11.6 241.754 12.2167 242.621 13.45C243.521 14.6833 243.971 16.2667 243.971 18.2V41H236.421V19.4C236.421 18.6 236.287 18.0167 236.021 17.65C235.754 17.25 235.304 17.05 234.671 17.05C233.904 17.05 232.954 17.45 231.821 18.25V41H224.321V12.1ZM257.579 41.5C255.079 41.5 253.012 40.9 251.379 39.7C249.746 38.4667 248.496 36.5833 247.629 34.05L252.929 31.85C253.929 34.8167 255.346 36.3 257.179 36.3C257.879 36.3 258.396 36.15 258.729 35.85C259.096 35.5167 259.279 35.0667 259.279 34.5C259.279 33.7333 259.029 33.05 258.529 32.45C258.062 31.85 257.112 30.9333 255.679 29.7L252.979 27.4C251.379 26.0333 250.196 24.7667 249.429 23.6C248.662 22.4333 248.279 21.0333 248.279 19.4C248.279 17.8667 248.662 16.5167 249.429 15.35C250.196 14.15 251.229 13.2333 252.529 12.6C253.862 11.9333 255.312 11.6 256.879 11.6C259.212 11.6 261.129 12.2667 262.629 13.6C264.162 14.9 265.212 16.7333 265.779 19.1L260.879 21.3C260.579 20.1 260.096 19.0833 259.429 18.25C258.762 17.3833 257.979 16.95 257.079 16.95C256.479 16.95 255.996 17.1333 255.629 17.5C255.262 17.8333 255.079 18.2833 255.079 18.85C255.079 19.4167 255.362 20.0333 255.929 20.7C256.496 21.3333 257.379 22.1667 258.579 23.2L261.279 25.6C262.846 26.9333 264.062 28.2167 264.929 29.45C265.829 30.6833 266.279 32.1167 266.279 33.75C266.279 35.35 265.879 36.7333 265.079 37.9C264.312 39.0667 263.262 39.9667 261.929 40.6C260.596 41.2 259.146 41.5 257.579 41.5ZM270.083 1.7H277.683V7.35H270.083V1.7ZM270.133 12.1H277.683V41H270.133V12.1ZM292.074 50.75C288.874 50.75 286.34 50.2667 284.474 49.3C282.64 48.3333 281.724 46.9 281.724 45C281.724 42.4667 283.207 40.55 286.174 39.25C283.64 38.5833 282.374 37.1667 282.374 35C282.374 33.9333 282.624 32.9833 283.124 32.15C283.657 31.3167 284.474 30.4167 285.574 29.45C284.607 28.6167 283.874 27.5833 283.374 26.35C282.907 25.0833 282.674 23.55 282.674 21.75C282.674 18.45 283.507 15.9333 285.174 14.2C286.874 12.4667 289.324 11.6 292.524 11.6C295.49 11.6 297.707 12.4333 299.174 14.1C299.507 13.5333 299.99 12.9833 300.624 12.45C301.257 11.9167 301.974 11.4667 302.774 11.1L303.774 10.6L305.574 14.4C305.074 14.5667 304.324 14.8667 303.324 15.3C302.324 15.7 301.54 16.0667 300.974 16.4C301.307 17.1 301.557 17.9333 301.724 18.9C301.924 19.8667 302.024 20.8333 302.024 21.8C302.024 24.9667 301.224 27.4167 299.624 29.15C298.057 30.8833 295.69 31.75 292.524 31.75C290.857 31.75 289.374 31.5167 288.074 31.05C287.54 31.7167 287.274 32.3333 287.274 32.9C287.274 33.3 287.474 33.6167 287.874 33.85C288.274 34.0833 288.957 34.25 289.924 34.35L296.874 35.1C301.607 35.6333 303.974 38.1167 303.974 42.55C303.974 45.3167 303.024 47.3667 301.124 48.7C299.257 50.0667 296.24 50.75 292.074 50.75ZM292.524 27.15C293.524 27.15 294.19 26.7667 294.524 26C294.857 25.2 295.024 23.7833 295.024 21.75C295.024 19.6833 294.857 18.25 294.524 17.45C294.19 16.6167 293.524 16.2 292.524 16.2C291.524 16.2 290.84 16.6167 290.474 17.45C290.14 18.2833 289.974 19.7167 289.974 21.75C289.974 23.6833 290.14 25.0667 290.474 25.9C290.84 26.7333 291.524 27.15 292.524 27.15ZM293.024 45.25C294.957 45.25 296.374 45.0667 297.274 44.7C298.207 44.3667 298.674 43.75 298.674 42.85C298.674 42.0833 298.374 41.5167 297.774 41.15C297.174 40.8167 296.057 40.5833 294.424 40.45L289.224 39.9C288.657 40.4 288.207 40.8667 287.874 41.3C287.574 41.7667 287.424 42.2667 287.424 42.8C287.424 43.6333 287.857 44.25 288.724 44.65C289.59 45.05 291.024 45.25 293.024 45.25ZM307.739 0.499997H315.289V14.75C317.389 12.65 319.756 11.6 322.389 11.6C324.022 11.6 325.272 12.2167 326.139 13.45C327.006 14.6833 327.439 16.2667 327.439 18.2V41H319.939V19.4C319.939 18.6 319.806 18.0167 319.539 17.65C319.272 17.25 318.822 17.05 318.189 17.05C317.356 17.05 316.389 17.4667 315.289 18.3V41H307.739V0.499997ZM341.344 41.35C338.444 41.35 336.427 40.7 335.294 39.4C334.194 38.1 333.644 36.1167 333.644 33.45V17.05H330.794V12.1H333.644V3.4H341.294V12.1H345.494V17.05H341.294V32.7C341.294 34.4 342.144 35.25 343.844 35.25C344.744 35.25 345.46 35.1833 345.994 35.05V40.95C344.227 41.2167 342.677 41.35 341.344 41.35ZM358.481 41.5C355.981 41.5 353.915 40.9 352.281 39.7C350.648 38.4667 349.398 36.5833 348.531 34.05L353.831 31.85C354.831 34.8167 356.248 36.3 358.081 36.3C358.781 36.3 359.298 36.15 359.631 35.85C359.998 35.5167 360.181 35.0667 360.181 34.5C360.181 33.7333 359.931 33.05 359.431 32.45C358.965 31.85 358.015 30.9333 356.581 29.7L353.881 27.4C352.281 26.0333 351.098 24.7667 350.331 23.6C349.565 22.4333 349.181 21.0333 349.181 19.4C349.181 17.8667 349.565 16.5167 350.331 15.35C351.098 14.15 352.131 13.2333 353.431 12.6C354.765 11.9333 356.215 11.6 357.781 11.6C360.115 11.6 362.031 12.2667 363.531 13.6C365.065 14.9 366.115 16.7333 366.681 19.1L361.781 21.3C361.481 20.1 360.998 19.0833 360.331 18.25C359.665 17.3833 358.881 16.95 357.981 16.95C357.381 16.95 356.898 17.1333 356.531 17.5C356.165 17.8333 355.981 18.2833 355.981 18.85C355.981 19.4167 356.265 20.0333 356.831 20.7C357.398 21.3333 358.281 22.1667 359.481 23.2L362.181 25.6C363.748 26.9333 364.965 28.2167 365.831 29.45C366.731 30.6833 367.181 32.1167 367.181 33.75C367.181 35.35 366.781 36.7333 365.981 37.9C365.215 39.0667 364.165 39.9667 362.831 40.6C361.498 41.2 360.048 41.5 358.481 41.5Z" fill="#1CCEDE"/>
</svg>
