<svg width="57" height="80" viewBox="0 0 57 80" fill="none" xmlns="http://www.w3.org/2000/svg">
<g opacity="0.8">
<path fill-rule="evenodd" clip-rule="evenodd" d="M27.2292 79.5933C27.5423 79.8633 27.9321 80 28.3186 80C28.705 80 29.0948 79.8633 29.408 79.5933C30.5208 78.6333 56.6372 55.7267 56.6372 28.3333C56.6372 12.71 43.9338 0 28.3186 0C12.7034 0 0 12.71 0 28.3333C0 55.7267 26.1164 78.6333 27.2292 79.5933ZM3.33155 28.3338C3.33155 14.5471 14.539 3.33379 28.3185 3.33379C42.098 3.33379 53.3055 14.5471 53.3055 28.3338C53.3055 51.1138 33.2593 71.4171 28.3185 76.0738C23.3744 71.4205 3.33155 51.1405 3.33155 28.3338Z" fill="#505050"/>
<path fill-rule="evenodd" clip-rule="evenodd" d="M10.6191 28.3182C10.6191 38.4689 18.8789 46.7253 29.0262 46.7253C39.1735 46.7253 47.4333 38.4689 47.4333 28.3182C47.4333 18.1675 39.1735 9.91113 29.0262 9.91113C18.8789 9.91113 10.6191 18.1675 10.6191 28.3182ZM13.966 28.3171C13.966 20.0138 20.7231 13.2568 29.0263 13.2568C37.3296 13.2568 44.0867 20.0138 44.0867 28.3171C44.0867 36.6204 37.3296 43.3774 29.0263 43.3774C20.7231 43.3774 13.966 36.6204 13.966 28.3171Z" fill="#1CCEDE"/>
<path d="M35.8233 30.4422H22.2304C21.2925 30.4422 20.5312 29.6492 20.5312 28.6723C20.5312 27.6953 21.2925 26.9023 22.2304 26.9023H35.8233C36.7612 26.9023 37.5224 27.6953 37.5224 28.6723C37.5224 29.6492 36.7612 30.4422 35.8233 30.4422Z" fill="#1CCEDE"/>
<path d="M28.6723 36.8144C27.6953 36.8144 26.9023 36.0532 26.9023 35.1153V21.5224C26.9023 20.5844 27.6953 19.8232 28.6723 19.8232C29.6492 19.8232 30.4422 20.5844 30.4422 21.5224V35.1153C30.4422 36.0532 29.6492 36.8144 28.6723 36.8144Z" fill="#1CCEDE"/>
</g>
</svg>
