<svg width="118" height="118" viewBox="0 0 118 118" fill="none" xmlns="http://www.w3.org/2000/svg">
<path fill-rule="evenodd" clip-rule="evenodd" d="M96.0416 35.7231C94.2806 34.2221 92.5436 33.0681 91.2296 32.4631C91.5046 31.8691 91.6596 31.2061 91.6596 30.5081C91.6596 27.9351 89.5736 25.8471 87.0006 25.8471C86.2056 25.8471 85.4596 26.0471 84.8056 26.3971C84.0086 25.1831 82.5716 23.6161 80.7746 22.0811C77.5846 19.3591 74.4656 17.7751 73.8116 18.5431C73.1556 19.3111 75.2096 22.1401 78.4026 24.8631C80.0886 26.3011 81.7526 27.4211 83.0446 28.0441C82.5996 28.7591 82.3406 29.6031 82.3406 30.5071C82.3406 31.1101 82.4566 31.6851 82.6646 32.2141C75.6766 39.7341 68.3996 44.0211 64.9796 45.7891C62.9836 44.7681 60.7256 44.1881 58.3296 44.1881C56.3646 44.1881 54.4906 44.5791 52.7776 45.2821C46.2426 42.4191 38.4646 35.2601 34.9156 31.7871C35.0316 31.3801 35.0956 30.9511 35.0956 30.5071C35.0956 29.7491 34.9136 29.0341 34.5926 28.4021C35.8656 27.7091 37.5306 26.4251 39.1956 24.7881C42.1856 21.8471 44.0346 18.8781 43.3266 18.1581C42.6176 17.4391 39.6206 19.2411 36.6306 22.1821C35.0126 23.7741 33.7296 25.3721 33.0056 26.6201C32.2686 26.1321 31.3866 25.8471 30.4356 25.8471C27.8616 25.8471 25.7746 27.9341 25.7746 30.5081C25.7746 31.2651 25.9566 31.9791 26.2776 32.6121C25.0096 33.3101 23.3596 34.5831 21.7126 36.2051C18.7236 39.1471 16.8746 42.1151 17.5826 42.8341C18.2906 43.5541 21.2876 41.7521 24.2766 38.8101C25.8806 37.2331 27.1546 35.6481 27.8836 34.4061C28.6166 34.8871 29.4926 35.1681 30.4356 35.1681C30.9796 35.1681 31.5006 35.0751 31.9856 34.9031C39.3496 41.4301 43.7166 48.2491 45.6086 51.6061C44.4006 53.7331 43.7066 56.1911 43.7066 58.8131C43.7066 60.9621 44.1746 63.0031 45.0076 64.8411C42.1766 71.2431 35.3156 78.8021 31.8186 82.4171C31.3816 82.2831 30.9176 82.2091 30.4356 82.2091C29.5796 82.2091 28.7786 82.4401 28.0886 82.8441C27.3486 81.5901 25.8866 79.9081 24.0236 78.2541C20.8856 75.4701 17.7996 73.8251 17.1296 74.5811C16.4586 75.3361 18.4596 78.2041 21.5966 80.9891C23.3886 82.5781 25.1616 83.7941 26.4796 84.4071C26.0326 85.1211 25.7746 85.9651 25.7746 86.8691C25.7746 89.4421 27.8616 91.5291 30.4356 91.5291C31.3236 91.5291 32.1526 91.2811 32.8586 90.8501C33.6616 92.0311 34.9766 93.4881 36.5956 94.9251C39.7326 97.7081 42.8186 99.3521 43.4896 98.5981C44.1596 97.8421 42.1586 94.9741 39.0216 92.1891C37.4246 90.7741 35.8426 89.6531 34.5836 88.9931C34.9106 88.3551 35.0966 87.6341 35.0966 86.8691C35.0966 86.3591 35.0136 85.8691 34.8626 85.4101C41.4236 77.9911 48.2716 73.6191 51.5556 71.7701C53.5806 72.8331 55.8856 73.4351 58.3306 73.4351C60.7956 73.4351 63.1156 72.8231 65.1536 71.7471C71.5896 75.0021 78.9616 82.2031 82.2196 85.5751C82.1016 85.9861 82.0366 86.4201 82.0366 86.8691C82.0366 87.6671 82.2366 88.4191 82.5916 89.0761C81.3586 89.8131 79.7986 91.0831 78.2466 92.6711C75.3146 95.6711 73.5226 98.6741 74.2456 99.3801C74.9686 100.085 77.9306 98.2251 80.8606 95.2261C82.3826 93.6681 83.5956 92.1101 84.3106 90.8721C85.0076 91.2891 85.8236 91.5291 86.6966 91.5291C89.2696 91.5291 91.3546 89.4421 91.3546 86.8691C91.3546 86.0861 91.1626 85.3481 90.8206 84.7021C92.0986 84.0061 93.8046 82.6511 95.5026 80.9151C98.4336 77.9141 100.227 74.9111 99.5026 74.2051C98.7806 73.4991 95.8186 75.3611 92.8876 78.3601C91.2486 80.0371 89.9676 81.7141 89.2816 82.9911C88.5416 82.4981 87.6526 82.2091 86.6976 82.2091C86.1626 82.2091 85.6496 82.3011 85.1726 82.4661C77.5926 75.4321 73.3146 68.1381 71.6336 64.8871C72.4806 63.0371 72.9556 60.9811 72.9556 58.8131C72.9556 56.5471 72.4396 54.4011 71.5186 52.4861C74.9606 45.7601 82.7766 38.0241 85.9366 35.0451C86.2796 35.1251 86.6346 35.1681 87.0006 35.1681C88.0116 35.1681 88.9466 34.8451 89.7106 34.2981C90.5186 35.4961 91.9226 37.0171 93.6686 38.5061C96.8596 41.2281 99.9786 42.8121 100.633 42.0441C101.288 41.2751 99.2306 38.4461 96.0416 35.7231ZM30.4696 31.4951C29.8906 31.4951 29.4216 31.0251 29.4216 30.4461C29.4216 29.8671 29.8916 29.3971 30.4696 29.3971C31.0496 29.3971 31.5196 29.8671 31.5196 30.4461C31.5196 31.0251 31.0496 31.4951 30.4696 31.4951ZM29.4716 86.7901C29.4716 87.3691 29.9416 87.8391 30.5206 87.8391C31.1006 87.8391 31.5706 87.3691 31.5706 86.7901C31.5706 86.2111 31.1006 85.7401 30.5206 85.7401C29.9416 85.7401 29.4716 86.2111 29.4716 86.7901ZM86.6626 85.8261C87.2426 85.8261 87.7126 86.2971 87.7126 86.8751C87.7126 87.4551 87.2426 87.9261 86.6626 87.9261C86.0836 87.9261 85.6146 87.4551 85.6146 86.8751C85.6146 86.2961 86.0836 85.8261 86.6626 85.8261ZM85.9856 30.4461C85.9856 31.0251 86.4556 31.4951 87.0356 31.4951C87.6146 31.4951 88.0836 31.0251 88.0836 30.4461C88.0836 29.8661 87.6146 29.3961 87.0356 29.3961C86.4556 29.3961 85.9856 29.8661 85.9856 30.4461Z" fill="white"/>
<circle cx="59" cy="59" r="59" fill="white" fill-opacity="0.33"/>
</svg>
