<?xml version="1.0" encoding="UTF-8"?>
<svg width="48px" height="30px" viewBox="0 0 48 30" version="1.1" xmlns="http://www.w3.org/2000/svg" xmlns:xlink="http://www.w3.org/1999/xlink">
    <!-- Generator: Sketch 49.3 (51167) - http://www.bohemiancoding.com/sketch -->
    <title>Group 2</title>
    <desc>Created with Sketch.</desc>
    <defs></defs>
    <g id="Page-1" stroke="none" stroke-width="1" fill="none" fill-rule="evenodd">
        <g id="Page2" transform="translate(-192.000000, -557.000000)">
            <g id="Group-2" transform="translate(192.000000, 557.000000)">
                <path d="M20.0679542,13.0365146 C19.9160533,12.9887358 19.8049718,12.9887358 19.7347096,13.0365146 C18.5456018,13.8451159 17.7767963,14.8844843 17.4136286,15.7253716 C17.1746513,16.2787053 16.6324374,17.1706256 16.5158648,18.2826113 C16.4650106,18.7677092 16.5364155,19.5952087 16.7300796,20.76511 C17.5399438,22.7054179 18.2700836,23.9716417 18.9204993,24.5637813 C19.5709149,25.155921 20.9511306,25.8109691 23.0611465,26.5289256 C25.5673241,26.2758058 27.2194602,25.9302345 28.0175549,25.4922117 C28.8156497,25.054189 29.9699544,23.8594857 31.480469,21.9081021 C32.0072102,19.5425699 32.1334128,17.9106615 31.8590768,17.012377 C31.5847408,16.1140926 30.555411,14.7888051 28.7710872,13.0365146 C27.6071091,12.4512705 26.7103146,12.0823654 26.0807037,11.9297993 C25.4510927,11.7772331 24.4445737,11.6849309 23.0611465,11.6528926 C22.125027,11.9267918 21.4450322,12.1617098 21.0211619,12.3576465 C20.5972916,12.5535832 20.2795558,12.7798726 20.0679542,13.0365146 Z" id="Path-3" fill="#1CCEDE"></path>
                <path d="M25.9300983,18.298605 C25.5970042,18.7295438 25.3903556,19.0748603 25.3101524,19.3345544 C25.2299492,19.5942484 25.2299492,19.9180504 25.3101524,20.3059603 C25.5318339,20.8813444 25.7384826,21.2685448 25.9300983,21.4675615 C26.121714,21.6665782 26.4664052,21.8520125 26.9641719,22.0238645 C27.4229713,22.0801994 27.7496167,22.0801994 27.9441081,22.0238645 C28.1385995,21.9675295 28.4521497,21.7820952 28.8847586,21.4675615 C29.188396,21.1507695 29.3802567,20.9050404 29.4603406,20.7303741 C29.5404245,20.5557078 29.6369776,20.1723945 29.75,19.5804341 C29.5909279,19.1380182 29.4423453,18.8356102 29.3042522,18.6732101 C29.166159,18.5108099 28.8610728,18.279695 28.3889935,17.9798652 C27.7690608,17.8627886 27.2941202,17.8256355 26.9641719,17.8684058 C26.6342236,17.911176 26.2895324,18.0545758 25.9300983,18.298605 Z" id="Path-4" fill="#000000"></path>
                <path d="M12.1091227,27.8232122 L12.1091227,30 L2.59564415,30 C1.76024642,29.867065 1.20731933,29.6871908 0.936862885,29.4603777 C0.666406442,29.2335645 0.354118814,28.6878427 0,27.8232122 L0,7.28279698 C0.128605337,6.52424806 0.334876979,6.02299156 0.618814925,5.7790275 C0.902752871,5.53506343 1.56169595,5.29291348 2.59564415,5.05257765 L14.8771884,5.05257765 C15.1570857,3.87223073 15.5502122,2.9860961 16.0565677,2.39417376 C16.5629233,1.80225142 17.610527,1.0041935 19.1993787,0 L28.5264555,0 C29.9506251,0.787583381 30.8883941,1.41430649 31.3397625,1.88016932 C31.7911308,2.34603216 32.4851536,3.4035016 33.421831,5.05257765 L45.0859195,5.05257765 C46.1252383,5.25027345 46.8321409,5.4924234 47.2066276,5.7790275 C47.5811143,6.0656316 47.8455717,6.56688809 48,7.28279698 L48,27.8232122 L46.1165658,30 L38.5074917,30 L38.5074917,26.9946568 L45.0859195,26.9946568 L45.0859195,8.03303486 L30.2667875,8.03303486 C30.2368082,5.9566976 29.9300867,4.67903639 29.3466231,4.20005124 C29.0033639,3.91825806 28.6682857,3.14129249 27.4952267,2.88841584 C26.9479747,2.77044458 25.7828991,2.77044458 24,2.88841584 C21.8483721,2.81288556 20.4445988,2.90828166 19.78868,3.17460414 C19.269295,3.38548986 18.7528527,3.98266714 18.4908579,4.20005124 C17.7325626,4.82922902 17.4543839,6.01942348 17.6563218,7.77063459 L2.59564415,8.03303486 L2.59564415,26.9946568 L12.1091227,26.9946568" id="Path-2" fill="#1CCEDE"></path>
            </g>
        </g>
    </g>
</svg>