<?xml version="1.0" encoding="utf-8"?>
<!-- Generator: Adobe Illustrator 22.1.0, SVG Export Plug-In . SVG Version: 6.00 Build 0)  -->
<svg version="1.1" id="Layer_1" xmlns="http://www.w3.org/2000/svg" xmlns:xlink="http://www.w3.org/1999/xlink" x="0px" y="0px"
	 viewBox="0 0 1024 256" style="enable-background:new 0 0 1024 256;" xml:space="preserve">
<style type="text/css">
	.st0{fill:#3FC3D5;}
	.st1{clip-path:url(#SVGID_2_);}
</style>
<g>
	<path class="st0" d="M22.4,88.3h22v108.9h-22V88.3z M60.4,119.5h19.8v6.5c5.2-5.3,11.3-7.9,18.3-7.9c3,0,5.7,0.8,7.9,2.4
		c2.3,1.5,4.1,3.9,5.2,7c5.6-6.3,12.1-9.4,19.8-9.4c4.5,0,8,1.7,10.6,5c2.7,3.2,4,7.8,4,13.7v60.5h-19.6v-58.5
		c0-2.5-0.4-4.3-1.3-5.2c-0.8-1.1-2.1-1.6-3.8-1.6c-1.2,0-2.5,0.3-4,0.9c-1.4,0.6-2.8,1.5-4.2,2.7v1.2v60.5H93.4v-58.5
		c0-2.5-0.4-4.3-1.3-5.2c-0.8-1.1-2.1-1.6-3.8-1.6c-1.2,0-2.5,0.3-4,0.9c-1.4,0.6-2.8,1.5-4.2,2.7v61.7H60.4V119.5z M175.6,198.5
		c-3.6,0-6.7-0.9-9.4-2.7c-2.7-1.8-4.7-4.1-6.2-7c-1.3-3-2-6-2-9.1c0-6,1.5-10.9,4.4-14.8c3-3.9,6.5-6.9,10.6-9
		c4.2-2.2,9.8-4.5,16.7-7v-7.3c0-2.8-0.4-4.9-1.2-6.3c-0.7-1.4-2.1-2.2-4-2.2c-2,0-3.4,0.6-4.2,1.9c-0.8,1.3-1.3,3-1.5,5.4l-0.4,5.4
		l-19.1-0.8c0.4-9.2,2.7-16,7.1-20.3c4.4-4.4,11-6.6,19.8-6.6c7.6,0,13.4,2.1,17.2,6.3c3.9,4.2,5.8,10,5.8,17.3v36.2
		c0,6.1,0.4,12.5,1.3,19.2h-18.1c-0.4-2.6-0.9-6.3-1.7-11.2c-1.1,3.6-2.9,6.6-5.5,9C182.6,197.3,179.4,198.5,175.6,198.5z
		 M182.8,184.1c1.3,0,2.6-0.4,3.8-1.3c1.3-0.9,2.3-1.9,3.1-3.1v-21.4c-4.2,2.4-7.4,4.9-9.7,7.5c-2.2,2.6-3.4,5.8-3.4,9.5
		c0,2.8,0.5,4.9,1.6,6.5C179.3,183.3,180.9,184.1,182.8,184.1z M247.2,223.3c-8.6,0-15.4-1.3-20.4-3.9c-4.9-2.6-7.4-6.5-7.4-11.6
		c0-6.8,4-12,12-15.5c-6.8-1.8-10.2-5.6-10.2-11.4c0-2.9,0.7-5.4,2-7.7c1.4-2.2,3.6-4.7,6.6-7.3c-2.6-2.2-4.6-5-5.9-8.3
		c-1.3-3.4-1.9-7.5-1.9-12.4c0-8.9,2.2-15.6,6.7-20.3c4.6-4.7,11.2-7,19.8-7c8,0,13.9,2.2,17.9,6.7c0.9-1.5,2.2-3,3.9-4.4
		c1.7-1.4,3.6-2.6,5.8-3.6l2.7-1.3l4.8,10.2c-1.3,0.4-3.4,1.3-6,2.4c-2.7,1.1-4.8,2.1-6.3,3c0.9,1.9,1.6,4.1,2,6.7
		c0.5,2.6,0.8,5.2,0.8,7.8c0,8.5-2.2,15.1-6.5,19.8c-4.2,4.7-10.6,7-19.1,7c-4.5,0-8.5-0.6-12-1.9c-1.4,1.8-2.2,3.4-2.2,5
		c0,1.1,0.5,1.9,1.6,2.6c1.1,0.6,2.9,1.1,5.5,1.3l18.7,2c12.7,1.4,19.1,8.1,19.1,20c0,7.4-2.6,12.9-7.7,16.5
		C266.5,221.5,258.4,223.3,247.2,223.3z M248.4,159.9c2.7,0,4.5-1,5.4-3.1c0.9-2.2,1.3-6,1.3-11.4c0-5.6-0.4-9.4-1.3-11.6
		c-0.9-2.2-2.7-3.4-5.4-3.4c-2.7,0-4.5,1.1-5.5,3.4c-0.9,2.2-1.3,6.1-1.3,11.6c0,5.2,0.4,8.9,1.3,11.2
		C243.9,158.8,245.7,159.9,248.4,159.9z M249.7,208.6c5.2,0,9-0.5,11.4-1.5c2.5-0.9,3.8-2.6,3.8-5c0-2.1-0.8-3.6-2.4-4.6
		c-1.6-0.9-4.6-1.5-9-1.9l-14-1.5c-1.5,1.3-2.7,2.6-3.6,3.8c-0.8,1.3-1.2,2.6-1.2,4c0,2.2,1.2,3.9,3.5,5
		C240.5,208,244.4,208.6,249.7,208.6z M313.3,198.5c-8.5,0-15-2.3-19.5-7c-4.4-4.7-6.6-11.4-6.6-20.2v-26.1c0-8.8,2.2-15.5,6.7-20.2
		c4.5-4.7,10.9-7,19.4-7c8.7,0,15.1,2.3,19.1,7c4,4.7,6,11.6,6,20.7v13.6h-31v15.1c0,3.3,0.5,5.7,1.5,7.3c1.1,1.5,2.6,2.3,4.6,2.3
		c4,0,6-2.9,6-8.7v-7.5h18.8v6.7c0,7.8-2.2,13.8-6.5,17.9S321.4,198.5,313.3,198.5z M319.5,149.7v-7.5c0-3.4-0.5-5.8-1.5-7.3
		c-1-1.5-2.6-2.3-4.7-2.3c-2.1,0-3.6,0.8-4.6,2.4c-0.9,1.6-1.3,4.5-1.3,8.6v6H319.5z M373.7,198.5c-6.7,0-12.3-1.6-16.7-4.8
		c-4.4-3.3-7.8-8.4-10.1-15.2l14.2-5.9c2.7,8,6.5,12,11.4,12c1.9,0,3.3-0.4,4.2-1.2c1-0.9,1.5-2.1,1.5-3.6c0-2.1-0.7-3.9-2-5.5
		c-1.3-1.6-3.8-4.1-7.7-7.4l-7.3-6.2c-4.3-3.7-7.5-7.1-9.5-10.2c-2.1-3.1-3.1-6.9-3.1-11.3c0-4.1,1-7.8,3.1-10.9
		c2.1-3.2,4.8-5.7,8.3-7.4c3.6-1.8,7.5-2.7,11.7-2.7c6.3,0,11.4,1.8,15.5,5.4c4.1,3.5,6.9,8.4,8.5,14.8l-13.2,5.9
		c-0.8-3.2-2.1-6-3.9-8.2c-1.8-2.3-3.9-3.5-6.3-3.5c-1.6,0-2.9,0.5-3.9,1.5c-1,0.9-1.5,2.1-1.5,3.6s0.8,3.2,2.3,5
		c1.5,1.7,3.9,3.9,7.1,6.7l7.3,6.5c4.2,3.6,7.5,7,9.8,10.3c2.4,3.3,3.6,7.2,3.6,11.6c0,4.3-1.1,8-3.2,11.2c-2.1,3.1-4.9,5.6-8.5,7.3
		C381.8,197.7,377.9,198.5,373.7,198.5z M464.6,198.1c-7.8,0-13.2-1.7-16.3-5.2c-3-3.5-4.4-8.8-4.4-16v-44.1h-7.7v-13.3h7.7V96.1
		h20.6v23.4h11.3v13.3h-11.3v42.1c0,4.6,2.3,6.9,6.9,6.9c2.4,0,4.3-0.2,5.8-0.5V197C472.3,197.7,468.1,198.1,464.6,198.1z
		 M512.6,198.5c-8.4,0-14.9-2.2-19.5-6.7c-4.5-4.5-6.7-11-6.7-19.5v-28c0-8.5,2.2-15,6.7-19.5c4.6-4.5,11.1-6.7,19.5-6.7
		c8.4,0,14.9,2.2,19.4,6.7c4.6,4.5,6.9,11,6.9,19.5v28c0,8.5-2.3,15-6.9,19.5C527.5,196.2,521.1,198.5,512.6,198.5z M512.8,184.8
		c2.3,0,3.9-0.9,4.7-2.7c0.9-1.9,1.3-4.7,1.3-8.3V143c0-3.7-0.4-6.5-1.3-8.3c-0.8-1.9-2.4-2.8-4.7-2.8c-2.4,0-4.1,1-5,3
		c-0.9,1.9-1.3,4.6-1.3,8.2v30.8c0,3.6,0.4,6.3,1.3,8.2C508.7,183.8,510.3,184.8,512.8,184.8z M587.5,88.3h22v108.9h-22V88.3z
		 M625.4,119.5h20.2v7.8c6.3-6.1,12.5-9.1,18.8-9.1c4.5,0,7.9,1.7,10.2,5c2.4,3.3,3.6,7.6,3.6,12.8v61.3h-20.3v-58.1
		c0-2.2-0.4-3.7-1.1-4.7c-0.7-1.1-1.9-1.6-3.6-1.6c-2.1,0-4.6,1.1-7.7,3.2v61.1h-20.2V119.5z M714.8,198.5c-6.7,0-12.3-1.6-16.7-4.8
		c-4.4-3.3-7.7-8.4-10.1-15.2l14.2-5.9c2.7,8,6.5,12,11.4,12c1.9,0,3.3-0.4,4.2-1.2c1-0.9,1.5-2.1,1.5-3.6c0-2.1-0.7-3.9-2-5.5
		c-1.3-1.6-3.8-4.1-7.7-7.4l-7.3-6.2c-4.3-3.7-7.5-7.1-9.5-10.2c-2.1-3.1-3.1-6.9-3.1-11.3c0-4.1,1-7.8,3.1-10.9
		c2.1-3.2,4.8-5.7,8.3-7.4c3.6-1.8,7.5-2.7,11.7-2.7c6.3,0,11.4,1.8,15.5,5.4c4.1,3.5,6.9,8.4,8.5,14.8l-13.2,5.9
		c-0.8-3.2-2.1-6-3.9-8.2c-1.8-2.3-3.9-3.5-6.3-3.5c-1.6,0-2.9,0.5-3.9,1.5c-1,0.9-1.5,2.1-1.5,3.6s0.8,3.2,2.3,5
		c1.5,1.7,3.9,3.9,7.1,6.7l7.3,6.5c4.2,3.6,7.5,7,9.8,10.3c2.4,3.3,3.6,7.2,3.6,11.6c0,4.3-1.1,8-3.2,11.2c-2.1,3.1-4.9,5.6-8.5,7.3
		C722.9,197.7,719,198.5,714.8,198.5z M748.4,91.5h20.4v15.2h-20.4V91.5z M748.5,119.5h20.3v77.7h-20.3V119.5z M807.5,223.3
		c-8.6,0-15.4-1.3-20.4-3.9c-4.9-2.6-7.4-6.5-7.4-11.6c0-6.8,4-12,12-15.5c-6.8-1.8-10.2-5.6-10.2-11.4c0-2.9,0.7-5.4,2-7.7
		c1.4-2.2,3.6-4.7,6.6-7.3c-2.6-2.2-4.6-5-5.9-8.3c-1.3-3.4-1.9-7.5-1.9-12.4c0-8.9,2.2-15.6,6.7-20.3c4.6-4.7,11.2-7,19.8-7
		c8,0,13.9,2.2,17.9,6.7c0.9-1.5,2.2-3,3.9-4.4c1.7-1.4,3.6-2.6,5.8-3.6l2.7-1.3l4.8,10.2c-1.3,0.4-3.4,1.3-6,2.4
		c-2.7,1.1-4.8,2.1-6.3,3c0.9,1.9,1.6,4.1,2,6.7c0.5,2.6,0.8,5.2,0.8,7.8c0,8.5-2.2,15.1-6.5,19.8c-4.2,4.7-10.6,7-19.1,7
		c-4.5,0-8.5-0.6-12-1.9c-1.4,1.8-2.2,3.4-2.2,5c0,1.1,0.5,1.9,1.6,2.6c1.1,0.6,2.9,1.1,5.5,1.3l18.7,2c12.7,1.4,19.1,8.1,19.1,20
		c0,7.4-2.6,12.9-7.7,16.5C826.8,221.5,818.7,223.3,807.5,223.3z M808.7,159.9c2.7,0,4.5-1,5.4-3.1c0.9-2.2,1.3-6,1.3-11.4
		c0-5.6-0.4-9.4-1.3-11.6c-0.9-2.2-2.7-3.4-5.4-3.4c-2.7,0-4.5,1.1-5.5,3.4c-0.9,2.2-1.3,6.1-1.3,11.6c0,5.2,0.4,8.9,1.3,11.2
		C804.2,158.8,806,159.9,808.7,159.9z M810,208.6c5.2,0,9-0.5,11.4-1.5c2.5-0.9,3.8-2.6,3.8-5c0-2.1-0.8-3.6-2.4-4.6
		c-1.6-0.9-4.6-1.5-9-1.9l-14-1.5c-1.5,1.3-2.7,2.6-3.6,3.8c-0.8,1.3-1.2,2.6-1.2,4c0,2.2,1.2,3.9,3.5,5
		C800.8,208,804.6,208.6,810,208.6z M849.6,88.3h20.3v38.3c5.6-5.6,12-8.5,19.1-8.5c4.4,0,7.7,1.7,10.1,5c2.3,3.3,3.5,7.6,3.5,12.8
		v61.3h-20.2v-58.1c0-2.2-0.4-3.7-1.1-4.7c-0.7-1.1-1.9-1.6-3.6-1.6c-2.2,0-4.8,1.1-7.8,3.4v61h-20.3V88.3z M939.9,198.1
		c-7.8,0-13.2-1.7-16.3-5.2c-3-3.5-4.4-8.8-4.4-16v-44.1h-7.7v-13.3h7.7V96.1h20.6v23.4h11.3v13.3h-11.3v42.1c0,4.6,2.3,6.9,6.9,6.9
		c2.4,0,4.3-0.2,5.8-0.5V197C947.7,197.7,943.5,198.1,939.9,198.1z M986,198.5c-6.7,0-12.3-1.6-16.7-4.8c-4.4-3.3-7.7-8.4-10.1-15.2
		l14.2-5.9c2.7,8,6.5,12,11.4,12c1.9,0,3.3-0.4,4.2-1.2c1-0.9,1.5-2.1,1.5-3.6c0-2.1-0.7-3.9-2-5.5c-1.3-1.6-3.8-4.1-7.7-7.4
		l-7.3-6.2c-4.3-3.7-7.5-7.1-9.5-10.2c-2.1-3.1-3.1-6.9-3.1-11.3c0-4.1,1-7.8,3.1-10.9c2.1-3.2,4.8-5.7,8.3-7.4
		c3.6-1.8,7.5-2.7,11.7-2.7c6.3,0,11.4,1.8,15.5,5.4c4.1,3.5,6.9,8.4,8.5,14.8l-13.2,5.9c-0.8-3.2-2.1-6-3.9-8.2
		c-1.8-2.3-3.9-3.5-6.3-3.5c-1.6,0-2.9,0.5-3.9,1.5c-1,0.9-1.5,2.1-1.5,3.6s0.8,3.2,2.3,5c1.5,1.7,3.9,3.9,7.1,6.7l7.3,6.5
		c4.2,3.6,7.5,7,9.8,10.3c2.4,3.3,3.6,7.2,3.6,11.6c0,4.3-1.1,8-3.2,11.2c-2.1,3.1-4.9,5.6-8.5,7.3
		C994.1,197.7,990.2,198.5,986,198.5z"/>
	<g>
		<path class="st0" d="M50.4,36.8H35.8c-0.5,0-1-0.2-1.3-0.6c-0.3-0.4-0.5-0.9-0.5-1.5c0-1.1-0.8-2.1-1.9-2.1h-7.2
			c-0.5,0-1,0.2-1.3,0.6l-2.7,3c-0.4,0.4-0.8,0.6-1.3,0.6h-2.8c-1,0-1.9,0.9-1.9,2.1v21.2c0,1.1,0.8,2.1,1.9,2.1h33.8
			c1,0,1.9-0.9,1.9-2.1V38.9C52.3,37.7,51.4,36.8,50.4,36.8z M33.5,58.1c-4.3,0-7.8-3.8-7.8-8.4c0-4.6,3.5-8.4,7.8-8.4
			s7.8,3.8,7.8,8.4S37.8,58.1,33.5,58.1z"/>
		<path class="st0" d="M33.5,44.3c-2.7,0-4.9,2.4-4.9,5.4s2.2,5.4,4.9,5.4s4.9-2.4,4.9-5.4C35.7,49.6,33.5,47.2,33.5,44.3z"/>
	</g>
	<g>
		<g>
			<defs>
				<rect id="SVGID_1_" x="574.3" y="34" width="48.4" height="26.9"/>
			</defs>
			<clipPath id="SVGID_2_">
				<use xlink:href="#SVGID_1_"  style="overflow:visible;"/>
			</clipPath>
			<g class="st1">
				<path class="st0" d="M598.5,40.8c-3.7,0-6.7,3-6.7,6.7s3,6.7,6.7,6.7c3.7,0,6.7-3,6.7-6.7C601.5,47.5,598.5,44.5,598.5,40.8z"/>
				<path class="st0" d="M622.4,46.8l-0.6-0.7c-0.1-0.1-2.4-3.1-6.5-6c-5.4-4-11.3-6.1-17-6.1c-5.7,0-11.6,2.1-17,6
					c-3.9,3-6.3,6-6.4,6.1l-0.6,0.7c-0.3,0.4-0.3,1,0,1.3l0.6,0.7c0.1,0.1,2.4,3.1,6.5,6c5.4,4,11.2,6,17,6c5.7,0,11.6-2.1,17-6
					c4-3,6.4-5.9,6.5-6l0.6-0.7C622.7,47.8,622.7,47.2,622.4,46.8z M598.5,57.8c-5.7,0-10.3-4.6-10.3-10.3s4.6-10.3,10.3-10.3
					c5.7,0,10.3,4.6,10.3,10.3S604.2,57.8,598.5,57.8z"/>
			</g>
		</g>
	</g>
</g>
</svg>
