<svg width="118" height="118" viewBox="0 0 118 118" fill="none" xmlns="http://www.w3.org/2000/svg">
<circle cx="59" cy="59" r="59" fill="white" fill-opacity="0.33"/>
<path fill-rule="evenodd" clip-rule="evenodd" d="M92.1514 41.9287C92.1514 41.9287 89.8687 31.3572 80.0014 27.6429C75.3623 25.9286 66.8941 25.0714 58.5732 25C50.1786 25.0714 41.7105 25.8572 37.0714 27.6429C27.2041 31.2858 24.9214 41.9287 24.9214 41.9287C23.4486 47.9288 22.9332 54.0003 23.0068 59.3575C23.0068 64.7861 23.4486 70.8576 24.9214 76.7862C24.9214 76.7862 27.2041 87.3577 37.0714 91.0721C41.7105 92.7864 50.1786 93.6435 58.4995 93.7149C66.8205 93.6435 75.2886 92.8578 79.9277 91.0721C89.795 87.3577 92.0777 76.7862 92.0777 76.7862C93.5505 70.7861 94.0659 64.7147 93.9923 59.3575C94.0659 54.0003 93.6241 47.8574 92.1514 41.9287ZM44.9504 72.7149H38.8385V62.6434H44.9504V72.7149ZM49.3685 72.7147H55.4803V52.0716H49.3685V72.7147ZM67.4095 72.7147H61.2977V59.2146H67.4095V72.7147ZM72.1225 72.7148H78.2343V45.5002H72.1225V72.7148Z" fill="white"/>
</svg>
