<svg width="118" height="118" viewBox="0 0 118 118" fill="none" xmlns="http://www.w3.org/2000/svg">
<circle cx="59" cy="59" r="59" fill="white" fill-opacity="0.33"/>
<path fill-rule="evenodd" clip-rule="evenodd" d="M58 21V48.8L43.16 58.06L20.89 44.16L58 21ZM74.84 58.06L60 48.8V21L97.11 44.16L74.84 58.06ZM98 72.51L76.73 59.24L98 45.96V72.51ZM45.05 59.23L59 67.94L72.95 59.24L59 50.53L45.05 59.23ZM41.27 59.24L20 45.96V72.51L41.27 59.24ZM43.16 60.42L58 69.68V97.48L20.89 74.32L43.16 60.42ZM60 69.68V97.48L97.11 74.32L74.84 60.42L60 69.68Z" fill="white"/>
</svg>
