<?xml version="1.0" encoding="UTF-8"?>
<svg width="1121px" height="146px" viewBox="0 0 1121 146" version="1.1" xmlns="http://www.w3.org/2000/svg" xmlns:xlink="http://www.w3.org/1999/xlink">
    <!-- Generator: Sketch 49.3 (51167) - http://www.bohemiancoding.com/sketch -->
    <title>Images to Insights</title>
    <desc>Created with Sketch.</desc>
    <defs></defs>
    <g id="Page-1" stroke="none" stroke-width="1" fill="none" fill-rule="evenodd">
        <g id="Page2" transform="translate(-204.000000, -604.000000)" fill="#1CCEDE">
            <path d="M204.363062,721 L204.363062,604.36 L227.979062,604.36 L227.979062,721 L204.363062,721 Z M244.498281,721 L244.498281,637.768 L265.666281,637.768 L265.666281,644.68 C268.642296,641.607985 271.786265,639.424006 275.098281,638.128 C278.410298,636.831994 281.794264,636.184 285.250281,636.184 C288.610298,636.184 291.514269,637.023992 293.962281,638.704 C296.410293,640.384008 298.210275,642.903983 299.362281,646.264 C302.626298,642.615982 306.034263,640.024008 309.586281,638.488 C313.138299,636.951992 316.786263,636.184 320.530281,636.184 C323.602297,636.184 326.338269,636.951992 328.738281,638.488 C331.138293,640.024008 333.010275,642.279985 334.354281,645.256 C335.698288,648.232015 336.370281,651.879978 336.370281,656.2 L336.370281,721 L315.202281,721 L315.202281,658.36 C315.202281,655.671987 314.746286,653.776006 313.834281,652.672 C312.922277,651.567994 311.55429,651.016 309.730281,651.016 C308.578275,651.016 307.186289,651.351997 305.554281,652.024 C303.922273,652.696003 302.386288,653.655994 300.946281,654.904 L300.946281,721 L280.066281,721 L280.066281,658.36 C280.066281,655.671987 279.586286,653.776006 278.626281,652.672 C277.666276,651.567994 276.27429,651.016 274.450281,651.016 C273.202275,651.016 271.786289,651.351997 270.202281,652.024 C268.618273,652.696003 267.106288,653.655994 265.666281,654.904 L265.666281,721 L244.498281,721 Z M367.252375,722.44 C363.316355,722.44 359.932389,721.43201 357.100375,719.416 C354.268361,717.39999 352.132382,714.856015 350.692375,711.784 C349.252368,708.711985 348.532375,705.544016 348.532375,702.28 C348.532375,697.095974 349.540365,692.728018 351.556375,689.176 C353.572385,685.623982 356.212359,682.648012 359.476375,680.248 C362.740391,677.847988 366.388355,675.784009 370.420375,674.056 C374.452395,672.327991 378.484355,670.744007 382.516375,669.304 L382.516375,661.528 C382.516375,659.703991 382.372376,658.120007 382.084375,656.776 C381.796374,655.431993 381.244379,654.400004 380.428375,653.68 C379.612371,652.959996 378.436383,652.6 376.900375,652.6 C375.364367,652.6 374.188379,652.911997 373.372375,653.536 C372.556371,654.160003 371.980377,655.071994 371.644375,656.272 C371.308373,657.472006 371.092375,658.791993 370.996375,660.232 L370.564375,665.992 L349.972375,665.128 C350.452377,655.335951 353.020352,648.088024 357.676375,643.384 C362.332398,638.679976 369.364328,636.328 378.772375,636.328 C387.220417,636.328 393.460355,638.655977 397.492375,643.312 C401.524395,647.968023 403.540375,654.087962 403.540375,661.672 L403.540375,700.408 C403.540375,703.672016 403.612374,706.575987 403.756375,709.12 C403.900376,711.664013 404.092374,713.91999 404.332375,715.888 C404.572376,717.85601 404.788374,719.559993 404.980375,721 L385.396375,721 C385.108374,718.887989 384.772377,716.584012 384.388375,714.088 C384.004373,711.591988 383.716376,709.912004 383.524375,709.048 C382.56437,712.504017 380.740388,715.599986 378.052375,718.336 C375.364362,721.072014 371.764398,722.44 367.252375,722.44 Z M375.172375,707.032 C376.22838,707.032 377.23637,706.792002 378.196375,706.312 C379.15638,705.831998 379.996371,705.208004 380.716375,704.44 C381.436379,703.671996 382.036373,702.952003 382.516375,702.28 L382.516375,679.384 C380.500365,680.632006 378.628384,681.855994 376.900375,683.056 C375.172366,684.256006 373.684381,685.575993 372.436375,687.016 C371.188369,688.456007 370.228378,690.039991 369.556375,691.768 C368.884372,693.496009 368.548375,695.463989 368.548375,697.672 C368.548375,700.552014 369.124369,702.831992 370.276375,704.512 C371.428381,706.192008 373.060364,707.032 375.172375,707.032 Z M443.623562,749.224 C437.575532,749.224 432.319585,748.600006 427.855562,747.352 C423.39154,746.103994 419.911575,744.256012 417.415562,741.808 C414.91955,739.359988 413.671562,736.216019 413.671562,732.376 C413.671562,729.783987 414.223557,727.45601 415.327562,725.392 C416.431568,723.32799 417.967553,721.528008 419.935563,719.992 C421.903572,718.455992 424.039551,717.112006 426.343562,715.96 C422.983546,714.999995 420.367572,713.51201 418.495563,711.496 C416.623553,709.47999 415.687562,706.888016 415.687562,703.72 C415.687562,700.359983 416.503554,697.480012 418.135562,695.08 C419.767571,692.679988 422.023548,690.232012 424.903562,687.736 C422.023548,685.335988 419.86357,682.360018 418.423563,678.808 C416.983555,675.255982 416.263562,670.792027 416.263562,665.416 C416.263562,659.175969 417.367551,653.896022 419.575562,649.576 C421.783574,645.255978 425.023541,641.968011 429.295562,639.712 C433.567584,637.455989 438.727532,636.328 444.775562,636.328 C449.095584,636.328 452.839547,636.927994 456.007563,638.128 C459.175578,639.328006 461.815552,641.079988 463.927562,643.384 C464.887567,641.943993 466.279553,640.432008 468.103562,638.848 C469.927572,637.263992 471.991551,635.896006 474.295562,634.744 L477.175562,633.448 L482.359562,644.392 C481.399558,644.680001 480.079571,645.159997 478.399563,645.832 C476.719554,646.504003 475.039571,647.223996 473.359562,647.992 C471.679554,648.760004 470.263568,649.479997 469.111562,650.152 C470.071567,652.16801 470.83956,654.567986 471.415562,657.352 C471.991565,660.136014 472.279562,662.919986 472.279562,665.704 C472.279562,671.560029 471.271573,676.647978 469.255562,680.968 C467.239552,685.288022 464.215583,688.599988 460.183562,690.904 C456.151542,693.208012 451.015594,694.36 444.775562,694.36 C442.37555,694.36 440.095573,694.168002 437.935563,693.784 C435.775552,693.399998 433.735572,692.920003 431.815562,692.344 C431.23956,693.112004 430.735565,693.951995 430.303562,694.864 C429.87156,695.776005 429.655562,696.711995 429.655562,697.672 C429.655562,698.824006 430.207557,699.735997 431.311562,700.408 C432.415568,701.080003 434.407548,701.559999 437.287562,701.848 L457.303562,704.008 C464.311598,704.776004 469.471546,707.007982 472.783562,710.704 C476.095579,714.400018 477.751562,719.319969 477.751562,725.464 C477.751562,730.552025 476.599574,734.871982 474.295562,738.424 C471.991551,741.976018 468.319588,744.663991 463.279562,746.488 C458.239537,748.312009 451.687603,749.224 443.623562,749.224 Z M446.215562,733.24 C451.495589,733.24 455.527549,732.760005 458.311562,731.8 C461.095576,730.839995 462.487562,728.968014 462.487562,726.184 C462.487562,724.839993 462.127566,723.712005 461.407562,722.8 C460.687559,721.887995 459.439571,721.144003 457.663563,720.568 C455.887554,719.991997 453.415578,719.560001 450.247562,719.272 L435.271562,717.832 C434.311558,718.600004 433.447566,719.415996 432.679562,720.28 C431.911559,721.144004 431.287565,722.055995 430.807562,723.016 C430.32756,723.976005 430.087562,725.031994 430.087562,726.184 C430.087562,728.488012 431.31155,730.239994 433.759562,731.44 C436.207575,732.640006 440.359533,733.24 446.215562,733.24 Z M444.775562,681.112 C446.31157,681.112 447.559558,680.824003 448.519563,680.248 C449.479567,679.671997 450.19956,678.760006 450.679562,677.512 C451.159565,676.263994 451.495562,674.63201 451.687563,672.616 C451.879563,670.59999 451.975563,668.200014 451.975563,665.416 C451.975563,662.631986 451.879563,660.25601 451.687563,658.288 C451.495562,656.31999 451.159565,654.688006 450.679562,653.392 C450.19956,652.095994 449.479567,651.160003 448.519563,650.584 C447.559558,650.007997 446.31157,649.72 444.775562,649.72 C443.335555,649.72 442.111568,650.007997 441.103562,650.584 C440.095557,651.160003 439.351565,652.071994 438.871562,653.32 C438.39156,654.568006 438.055563,656.19999 437.863563,658.216 C437.671562,660.23201 437.575563,662.631986 437.575563,665.416 C437.575563,668.104013 437.671562,670.43199 437.863563,672.4 C438.055563,674.36801 438.39156,675.999994 438.871562,677.296 C439.351565,678.592006 440.071558,679.551997 441.031562,680.176 C441.991567,680.800003 443.239555,681.112 444.775562,681.112 Z M513.74425,722.44 C507.600219,722.44 502.464271,721.312011 498.33625,719.056 C494.208229,716.799989 491.088261,713.488022 488.97625,709.12 C486.864239,704.751978 485.80825,699.496031 485.80825,693.352 L485.80825,665.416 C485.80825,659.079968 486.864239,653.776021 488.97625,649.504 C491.088261,645.231979 494.256229,641.968011 498.48025,639.712 C502.704271,637.455989 507.79222,636.328 513.74425,636.328 C520.080282,636.328 525.21623,637.479988 529.15225,639.784 C533.08827,642.088012 535.992241,645.447978 537.86425,649.864 C539.736259,654.280022 540.67225,659.655968 540.67225,665.992 L540.67225,680.536 L507.26425,680.536 L507.26425,696.664 C507.26425,699.064012 507.528247,701.031992 508.05625,702.568 C508.584253,704.104008 509.328245,705.183997 510.28825,705.808 C511.248255,706.432003 512.448243,706.744 513.88825,706.744 C515.232257,706.744 516.408245,706.432003 517.41625,705.808 C518.424255,705.183997 519.168248,704.200007 519.64825,702.856 C520.128252,701.511993 520.36825,699.736011 520.36825,697.528 L520.36825,689.608 L540.52825,689.608 L540.52825,696.52 C540.52825,704.968042 538.224273,711.399978 533.61625,715.816 C529.008227,720.232022 522.384293,722.44 513.74425,722.44 Z M507.26425,670.168 L520.36825,670.168 L520.36825,661.96 C520.36825,659.559988 520.128252,657.616007 519.64825,656.128 C519.168248,654.639993 518.424255,653.584003 517.41625,652.96 C516.408245,652.335997 515.136258,652.024 513.60025,652.024 C512.160243,652.024 510.984255,652.359997 510.07225,653.032 C509.160245,653.704003 508.464252,654.879992 507.98425,656.56 C507.504248,658.240008 507.26425,660.615985 507.26425,663.688 L507.26425,670.168 Z M577.906094,722.44 C570.706058,722.44 564.778117,720.688018 560.122094,717.184 C555.46607,713.679982 551.842107,708.280036 549.250094,700.984 L564.514094,694.648 C565.954101,698.68002 567.682084,701.823989 569.698094,704.08 C571.714104,706.336011 574.06608,707.464 576.754094,707.464 C578.770104,707.464 580.282089,707.008005 581.290094,706.096 C582.298099,705.183995 582.802094,703.912008 582.802094,702.28 C582.802094,699.975988 582.034101,697.912009 580.498094,696.088 C578.962086,694.263991 576.226113,691.720016 572.290094,688.456 L564.514094,681.832 C560.482074,678.375983 557.242106,674.944017 554.794094,671.536 C552.346082,668.127983 551.122094,663.880025 551.122094,658.792 C551.122094,654.279977 552.250082,650.344017 554.506094,646.984 C556.762105,643.623983 559.786075,641.008009 563.578094,639.136 C567.370113,637.263991 571.474072,636.328 575.890094,636.328 C582.706128,636.328 588.298072,638.271981 592.666094,642.16 C597.034116,646.048019 599.986086,651.303967 601.522094,657.928 L587.410094,664.264 C586.834091,662.151989 586.066099,660.160009 585.106094,658.288 C584.146089,656.415991 582.922101,654.856006 581.434094,653.608 C579.946086,652.359994 578.290103,651.736 576.466094,651.736 C574.738085,651.736 573.346099,652.263995 572.290094,653.32 C571.234088,654.376005 570.706094,655.719992 570.706094,657.352 C570.706094,659.080009 571.594085,660.90399 573.370094,662.824 C575.146103,664.74401 577.618078,667.047987 580.786094,669.736 L588.562094,676.648 C590.866105,678.66401 593.122083,680.799989 595.330094,683.056 C597.538105,685.312011 599.362087,687.807986 600.802094,690.544 C602.242101,693.280014 602.962094,696.423982 602.962094,699.976 C602.962094,704.776024 601.810105,708.855983 599.506094,712.216 C597.202082,715.576017 594.154113,718.119991 590.362094,719.848 C586.570075,721.576009 582.418116,722.44 577.906094,722.44 Z M710.221844,721.864 C704.461815,721.864 699.94986,720.976009 696.685844,719.2 C693.421827,717.423991 691.16585,714.856017 689.917844,711.496 C688.669838,708.135983 688.045844,704.056024 688.045844,699.256 L688.045844,652.024 L679.837844,652.024 L679.837844,637.768 L688.045844,637.768 L688.045844,612.568 L710.077844,612.568 L710.077844,637.768 L722.173844,637.768 L722.173844,652.024 L710.077844,652.024 L710.077844,697.24 C710.077844,699.832013 710.725837,701.679994 712.021844,702.784 C713.31785,703.888006 715.117832,704.44 717.421844,704.44 C718.57385,704.44 719.677838,704.368001 720.733844,704.224 C721.789849,704.079999 722.749839,703.96 723.613844,703.864 L723.613844,720.856 C722.269837,721.048001 720.349856,721.263999 717.853844,721.504 C715.357831,721.744001 712.813857,721.864 710.221844,721.864 Z M761.227656,722.44 C755.275626,722.44 750.187677,721.360011 745.963656,719.2 C741.739635,717.039989 738.547667,713.896021 736.387656,709.768 C734.227645,705.639979 733.147656,700.504031 733.147656,694.36 L733.147656,664.408 C733.147656,658.263969 734.227645,653.128021 736.387656,649 C738.547667,644.871979 741.739635,641.728011 745.963656,639.568 C750.187677,637.407989 755.275626,636.328 761.227656,636.328 C767.179686,636.328 772.267635,637.407989 776.491656,639.568 C780.715677,641.728011 783.931645,644.871979 786.139656,649 C788.347667,653.128021 789.451656,658.263969 789.451656,664.408 L789.451656,694.36 C789.451656,700.504031 788.347667,705.639979 786.139656,709.768 C783.931645,713.896021 780.715677,717.039989 776.491656,719.2 C772.267635,721.360011 767.179686,722.44 761.227656,722.44 Z M761.371656,707.752 C763.195665,707.752 764.587651,707.248005 765.547656,706.24 C766.507661,705.231995 767.131655,703.840009 767.419656,702.064 C767.707658,700.287991 767.851656,698.248012 767.851656,695.944 L767.851656,662.968 C767.851656,660.567988 767.707658,658.504009 767.419656,656.776 C767.131655,655.047991 766.507661,653.656005 765.547656,652.6 C764.587651,651.543995 763.195665,651.016 761.371656,651.016 C759.547647,651.016 758.155661,651.543995 757.195656,652.6 C756.235651,653.656005 755.587658,655.047991 755.251656,656.776 C754.915655,658.504009 754.747656,660.567988 754.747656,662.968 L754.747656,695.944 C754.747656,698.248012 754.915655,700.287991 755.251656,702.064 C755.587658,703.840009 756.235651,705.231995 757.195656,706.24 C758.155661,707.248005 759.547647,707.752 761.371656,707.752 Z M876.306156,721 L876.306156,604.36 L899.922156,604.36 L899.922156,721 L876.306156,721 Z M916.441375,721 L916.441375,637.768 L938.185375,637.768 L938.185375,646.12 C941.16139,643.143985 944.305358,640.768009 947.617375,638.992 C950.929392,637.215991 954.457356,636.328 958.201375,636.328 C961.657392,636.328 964.465364,637.191991 966.625375,638.92 C968.785386,640.648009 970.39337,642.927986 971.449375,645.76 C972.50538,648.592014 973.033375,651.783982 973.033375,655.336 L973.033375,721 L951.433375,721 L951.433375,658.936 C951.433375,656.631988 951.073379,654.904006 950.353375,653.752 C949.633371,652.599994 948.265385,652.024 946.249375,652.024 C945.097369,652.024 943.825382,652.335997 942.433375,652.96 C941.041368,653.584003 939.625382,654.423995 938.185375,655.48 L938.185375,721 L916.441375,721 Z M1011.55675,722.44 C1004.35671,722.44 998.428773,720.688018 993.77275,717.184 C989.116727,713.679982 985.492763,708.280036 982.90075,700.984 L998.16475,694.648 C999.604757,698.68002 1001.33274,701.823989 1003.34875,704.08 C1005.36476,706.336011 1007.71674,707.464 1010.40475,707.464 C1012.42076,707.464 1013.93274,707.008005 1014.94075,706.096 C1015.94876,705.183995 1016.45275,703.912008 1016.45275,702.28 C1016.45275,699.975988 1015.68476,697.912009 1014.14875,696.088 C1012.61274,694.263991 1009.87677,691.720016 1005.94075,688.456 L998.16475,681.832 C994.13273,678.375983 990.892762,674.944017 988.44475,671.536 C985.996738,668.127983 984.77275,663.880025 984.77275,658.792 C984.77275,654.279977 985.900739,650.344017 988.15675,646.984 C990.412761,643.623983 993.436731,641.008009 997.22875,639.136 C1001.02077,637.263991 1005.12473,636.328 1009.54075,636.328 C1016.35678,636.328 1021.94873,638.271981 1026.31675,642.16 C1030.68477,646.048019 1033.63674,651.303967 1035.17275,657.928 L1021.06075,664.264 C1020.48475,662.151989 1019.71675,660.160009 1018.75675,658.288 C1017.79675,656.415991 1016.57276,654.856006 1015.08475,653.608 C1013.59674,652.359994 1011.94076,651.736 1010.11675,651.736 C1008.38874,651.736 1006.99676,652.263995 1005.94075,653.32 C1004.88474,654.376005 1004.35675,655.719992 1004.35675,657.352 C1004.35675,659.080009 1005.24474,660.90399 1007.02075,662.824 C1008.79676,664.74401 1011.26873,667.047987 1014.43675,669.736 L1022.21275,676.648 C1024.51676,678.66401 1026.77274,680.799989 1028.98075,683.056 C1031.18876,685.312011 1033.01274,687.807986 1034.45275,690.544 C1035.89276,693.280014 1036.61275,696.423982 1036.61275,699.976 C1036.61275,704.776024 1035.46076,708.855983 1033.15675,712.216 C1030.85274,715.576017 1027.80477,718.119991 1024.01275,719.848 C1020.22073,721.576009 1016.06877,722.44 1011.55675,722.44 Z M1047.17594,721 L1047.17594,637.768 L1068.91994,637.768 L1068.91994,721 L1047.17594,721 Z M1047.03194,624.088 L1047.03194,607.816 L1068.91994,607.816 L1068.91994,624.088 L1047.03194,624.088 Z M1109.86431,749.224 C1103.81628,749.224 1098.56033,748.600006 1094.09631,747.352 C1089.63229,746.103994 1086.15232,744.256012 1083.65631,741.808 C1081.1603,739.359988 1079.91231,736.216019 1079.91231,732.376 C1079.91231,729.783987 1080.46431,727.45601 1081.56831,725.392 C1082.67232,723.32799 1084.2083,721.528008 1086.17631,719.992 C1088.14432,718.455992 1090.2803,717.112006 1092.58431,715.96 C1089.2243,714.999995 1086.60832,713.51201 1084.73631,711.496 C1082.8643,709.47999 1081.92831,706.888016 1081.92831,703.72 C1081.92831,700.359983 1082.7443,697.480012 1084.37631,695.08 C1086.00832,692.679988 1088.2643,690.232012 1091.14431,687.736 C1088.2643,685.335988 1086.10432,682.360018 1084.66431,678.808 C1083.22431,675.255982 1082.50431,670.792027 1082.50431,665.416 C1082.50431,659.175969 1083.6083,653.896022 1085.81631,649.576 C1088.02432,645.255978 1091.26429,641.968011 1095.53631,639.712 C1099.80833,637.455989 1104.96828,636.328 1111.01631,636.328 C1115.33633,636.328 1119.0803,636.927994 1122.24831,638.128 C1125.41633,639.328006 1128.0563,641.079988 1130.16831,643.384 C1131.12832,641.943993 1132.5203,640.432008 1134.34431,638.848 C1136.16832,637.263992 1138.2323,635.896006 1140.53631,634.744 L1143.41631,633.448 L1148.60031,644.392 C1147.64031,644.680001 1146.32032,645.159997 1144.64031,645.832 C1142.9603,646.504003 1141.28032,647.223996 1139.60031,647.992 C1137.9203,648.760004 1136.50432,649.479997 1135.35231,650.152 C1136.31232,652.16801 1137.08031,654.567986 1137.65631,657.352 C1138.23232,660.136014 1138.52031,662.919986 1138.52031,665.704 C1138.52031,671.560029 1137.51232,676.647978 1135.49631,680.968 C1133.4803,685.288022 1130.45633,688.599988 1126.42431,690.904 C1122.39229,693.208012 1117.25634,694.36 1111.01631,694.36 C1108.6163,694.36 1106.33632,694.168002 1104.17631,693.784 C1102.0163,693.399998 1099.97632,692.920003 1098.05631,692.344 C1097.48031,693.112004 1096.97631,693.951995 1096.54431,694.864 C1096.11231,695.776005 1095.89631,696.711995 1095.89631,697.672 C1095.89631,698.824006 1096.44831,699.735997 1097.55231,700.408 C1098.65632,701.080003 1100.6483,701.559999 1103.52831,701.848 L1123.54431,704.008 C1130.55235,704.776004 1135.7123,707.007982 1139.02431,710.704 C1142.33633,714.400018 1143.99231,719.319969 1143.99231,725.464 C1143.99231,730.552025 1142.84032,734.871982 1140.53631,738.424 C1138.2323,741.976018 1134.56034,744.663991 1129.52031,746.488 C1124.48029,748.312009 1117.92835,749.224 1109.86431,749.224 Z M1112.45631,733.24 C1117.73634,733.24 1121.7683,732.760005 1124.55231,731.8 C1127.33633,730.839995 1128.72831,728.968014 1128.72831,726.184 C1128.72831,724.839993 1128.36832,723.712005 1127.64831,722.8 C1126.92831,721.887995 1125.68032,721.144003 1123.90431,720.568 C1122.1283,719.991997 1119.65633,719.560001 1116.48831,719.272 L1101.51231,717.832 C1100.55231,718.600004 1099.68832,719.415996 1098.92031,720.28 C1098.15231,721.144004 1097.52831,722.055995 1097.04831,723.016 C1096.56831,723.976005 1096.32831,725.031994 1096.32831,726.184 C1096.32831,728.488012 1097.5523,730.239994 1100.00031,731.44 C1102.44832,732.640006 1106.60028,733.24 1112.45631,733.24 Z M1111.01631,681.112 C1112.55232,681.112 1113.80031,680.824003 1114.76031,680.248 C1115.72032,679.671997 1116.44031,678.760006 1116.92031,677.512 C1117.40031,676.263994 1117.73631,674.63201 1117.92831,672.616 C1118.12031,670.59999 1118.21631,668.200014 1118.21631,665.416 C1118.21631,662.631986 1118.12031,660.25601 1117.92831,658.288 C1117.73631,656.31999 1117.40031,654.688006 1116.92031,653.392 C1116.44031,652.095994 1115.72032,651.160003 1114.76031,650.584 C1113.80031,650.007997 1112.55232,649.72 1111.01631,649.72 C1109.57631,649.72 1108.35232,650.007997 1107.34431,650.584 C1106.33631,651.160003 1105.59231,652.071994 1105.11231,653.32 C1104.63231,654.568006 1104.29631,656.19999 1104.10431,658.216 C1103.91231,660.23201 1103.81631,662.631986 1103.81631,665.416 C1103.81631,668.104013 1103.91231,670.43199 1104.10431,672.4 C1104.29631,674.36801 1104.63231,675.999994 1105.11231,677.296 C1105.59231,678.592006 1106.31231,679.551997 1107.27231,680.176 C1108.23232,680.800003 1109.4803,681.112 1111.01631,681.112 Z M1154.209,721 L1154.209,604.36 L1175.809,604.36 L1175.809,645.4 C1178.88102,642.423985 1182.09698,640.168008 1185.457,638.632 C1188.81702,637.095992 1192.46498,636.328 1196.401,636.328 C1199.76102,636.328 1202.52099,637.191991 1204.681,638.92 C1206.84101,640.648009 1208.44899,642.927986 1209.505,645.76 C1210.56101,648.592014 1211.089,651.783982 1211.089,655.336 L1211.089,721 L1189.345,721 L1189.345,658.936 C1189.345,656.631988 1189.009,654.904006 1188.337,653.752 C1187.665,652.599994 1186.32101,652.024 1184.305,652.024 C1183.15299,652.024 1181.83301,652.335997 1180.345,652.96 C1178.85699,653.584003 1177.34501,654.423995 1175.809,655.48 L1175.809,721 L1154.209,721 Z M1250.311,721.864 C1244.55097,721.864 1240.03902,720.976009 1236.775,719.2 C1233.51098,717.423991 1231.25501,714.856017 1230.007,711.496 C1228.75899,708.135983 1228.135,704.056024 1228.135,699.256 L1228.135,652.024 L1219.927,652.024 L1219.927,637.768 L1228.135,637.768 L1228.135,612.568 L1250.167,612.568 L1250.167,637.768 L1262.263,637.768 L1262.263,652.024 L1250.167,652.024 L1250.167,697.24 C1250.167,699.832013 1250.81499,701.679994 1252.111,702.784 C1253.40701,703.888006 1255.20699,704.44 1257.511,704.44 C1258.66301,704.44 1259.76699,704.368001 1260.823,704.224 C1261.87901,704.079999 1262.839,703.96 1263.703,703.864 L1263.703,720.856 C1262.35899,721.048001 1260.43901,721.263999 1257.943,721.504 C1255.44699,721.744001 1252.90301,721.864 1250.311,721.864 Z M1299.15681,722.44 C1291.95678,722.44 1286.02884,720.688018 1281.37281,717.184 C1276.71679,713.679982 1273.09283,708.280036 1270.50081,700.984 L1285.76481,694.648 C1287.20482,698.68002 1288.9328,701.823989 1290.94881,704.08 C1292.96482,706.336011 1295.3168,707.464 1298.00481,707.464 C1300.02082,707.464 1301.53281,707.008005 1302.54081,706.096 C1303.54882,705.183995 1304.05281,703.912008 1304.05281,702.28 C1304.05281,699.975988 1303.28482,697.912009 1301.74881,696.088 C1300.2128,694.263991 1297.47683,691.720016 1293.54081,688.456 L1285.76481,681.832 C1281.73279,678.375983 1278.49282,674.944017 1276.04481,671.536 C1273.5968,668.127983 1272.37281,663.880025 1272.37281,658.792 C1272.37281,654.279977 1273.5008,650.344017 1275.75681,646.984 C1278.01282,643.623983 1281.03679,641.008009 1284.82881,639.136 C1288.62083,637.263991 1292.72479,636.328 1297.14081,636.328 C1303.95685,636.328 1309.54879,638.271981 1313.91681,642.16 C1318.28483,646.048019 1321.2368,651.303967 1322.77281,657.928 L1308.66081,664.264 C1308.08481,662.151989 1307.31682,660.160009 1306.35681,658.288 C1305.39681,656.415991 1304.17282,654.856006 1302.68481,653.608 C1301.19681,652.359994 1299.54082,651.736 1297.71681,651.736 C1295.9888,651.736 1294.59682,652.263995 1293.54081,653.32 C1292.48481,654.376005 1291.95681,655.719992 1291.95681,657.352 C1291.95681,659.080009 1292.8448,660.90399 1294.62081,662.824 C1296.39682,664.74401 1298.8688,667.047987 1302.03681,669.736 L1309.81281,676.648 C1312.11682,678.66401 1314.3728,680.799989 1316.58081,683.056 C1318.78882,685.312011 1320.61281,687.807986 1322.05281,690.544 C1323.49282,693.280014 1324.21281,696.423982 1324.21281,699.976 C1324.21281,704.776024 1323.06082,708.855983 1320.75681,712.216 C1318.4528,715.576017 1315.40483,718.119991 1311.61281,719.848 C1307.82079,721.576009 1303.66884,722.44 1299.15681,722.44 Z" id="Images-to-Insights"></path>
        </g>
    </g>
</svg>