<?xml version="1.0" encoding="UTF-8"?>
<svg width="220px" height="50px" viewBox="0 0 220 50" version="1.1" xmlns="http://www.w3.org/2000/svg" xmlns:xlink="http://www.w3.org/1999/xlink">
    <!-- Generator: Sketch 49.3 (51167) - http://www.bohemiancoding.com/sketch -->
    <title>Group</title>
    <desc>Created with Sketch.</desc>
    <defs></defs>
    <g id="Page-1" stroke="none" stroke-width="1" fill="none" fill-rule="evenodd" fill-opacity="0.840000033">
        <g id="Landing-Page" transform="translate(-727.000000, -684.000000)" fill="#000000">
            <g id="Group" transform="translate(727.000000, 684.000000)">
                <path d="M58,39 C59.9047714,39 61.6111036,38.5545499 63.1190476,37.6636364 C64.6269917,36.7727228 65.817456,35.5318261 66.6904762,33.9409091 C67.5634964,32.349992 68,30.5363738 68,28.5 C68,26.4636262 67.5634964,24.650008 66.6904762,23.0590909 C65.817456,21.4681739 64.6269917,20.2272772 63.1190476,19.3363636 C61.6111036,18.4454501 59.9047714,18 58,18 C56.0952286,18 54.3888964,18.4454501 52.8809524,19.3363636 C51.3730083,20.2272772 50.182544,21.4681739 49.3095238,23.0590909 C48.4365036,24.650008 48,26.4636262 48,28.5 C48,30.5363738 48.4365036,32.349992 49.3095238,33.9409091 C50.182544,35.5318261 51.3730083,36.7727228 52.8809524,37.6636364 C54.3888964,38.5545499 56.0952286,39 58,39 Z" id="Platform-Solution"></path>
                <path d="M165,39 C166.904771,39 168.611104,38.5545499 170.119048,37.6636364 C171.626992,36.7727228 172.817456,35.5318261 173.690476,33.9409091 C174.563496,32.349992 175,30.5363738 175,28.5 C175,26.4636262 174.563496,24.650008 173.690476,23.0590909 C172.817456,21.4681739 171.626992,20.2272772 170.119048,19.3363636 C168.611104,18.4454501 166.904771,18 165,18 C163.095229,18 161.388896,18.4454501 159.880952,19.3363636 C158.373008,20.2272772 157.182544,21.4681739 156.309524,23.0590909 C155.436504,24.650008 155,26.4636262 155,28.5 C155,30.5363738 155.436504,32.349992 156.309524,33.9409091 C157.182544,35.5318261 158.373008,36.7727228 159.880952,37.6636364 C161.388896,38.5545499 163.095229,39 165,39 Z" id="Platform-Solution"></path>
                <path d="M0,0 L220,0 L220,50 L0,50 L0,0 Z M28.8714857,41.262648 C31.5329689,41.262648 33.7775596,40.8616297 35.6053252,40.0595811 C37.4330908,39.2575324 38.7878616,38.1828034 39.6696784,36.8353617 C40.5514951,35.48792 40.9923968,33.9961319 40.9923968,32.3599526 C40.9923968,30.370872 40.4713311,28.7908599 39.4291841,27.6198689 C38.3870371,26.4488779 37.128463,25.574658 35.6534241,24.997183 C34.1783852,24.4197079 32.2063519,23.8262009 29.7372651,23.2166439 C27.5247067,22.6712508 25.7771325,22.1579474 24.49449,21.6767182 C23.2118475,21.195489 22.1376505,20.5057375 21.2718668,19.6074431 C20.4060831,18.7091486 19.9731978,17.5060937 19.9731978,15.9982422 C19.9731978,14.0091616 20.7748373,12.3890477 22.3781404,11.1378518 C23.9814436,9.88665592 26.3382638,9.26106737 29.4486719,9.26106737 C31.019909,9.26106737 32.6151717,9.50167835 34.2345079,9.98290753 C35.8538441,10.4641367 37.3368772,11.1699289 38.6836519,12.1003054 L39.5975301,10.1272756 C38.2828215,9.19689915 36.7276408,8.45902547 34.9319413,7.9136324 C33.1362417,7.36823932 31.3085036,7.09554687 29.4486719,7.09554687 C26.7871887,7.09554687 24.5666472,7.49656518 22.7869807,8.29861382 C21.0073142,9.10066245 19.684609,10.1834119 18.8188253,11.5468946 C17.9530416,12.9103772 17.5201562,14.4101857 17.5201562,16.0463649 C17.5201562,18.0675275 18.0412219,19.6796211 19.083369,20.882694 C20.125516,22.085767 21.3921065,22.9760276 22.8831784,23.5535026 C24.3742503,24.1309777 26.3543,24.7244847 28.8233868,25.3340417 C31.0038791,25.8473528 32.7354205,26.3446155 34.018063,26.8258447 C35.3007056,27.3070739 36.3749026,27.9968254 37.2406862,28.8951199 C38.1064699,29.7934143 38.5393553,30.9964692 38.5393553,32.5043207 C38.5393553,34.4613194 37.721683,36.0493518 36.0863138,37.2684658 C34.4509446,38.4875797 32.0299931,39.0971275 28.8233868,39.0971275 C26.6108285,39.0971275 24.5025165,38.7041296 22.4983876,37.9181219 C20.4942587,37.1321143 18.898996,36.1135278 17.7125516,34.8623319 L16.606278,36.6909936 C17.8568544,38.0384353 19.5964123,39.1372255 21.8250036,39.9873971 C24.053595,40.8375686 26.4023989,41.262648 28.8714857,41.262648 Z M58.356083,41.2088992 C60.7289717,41.2088992 62.8693493,40.6631651 64.77728,39.5716804 C66.6852107,38.4801957 68.1842767,36.9633758 69.2745228,35.0211751 C70.364769,33.0789744 70.9098839,30.8880123 70.9098839,28.448223 C70.9098839,26.0084338 70.364769,23.8174717 69.2745228,21.875271 C68.1842767,19.9330703 66.6852107,18.4162504 64.77728,17.3247657 C62.8693493,16.233281 60.7289717,15.6875469 58.356083,15.6875469 C55.9831944,15.6875469 53.8428168,16.233281 51.9348861,17.3247657 C50.0269553,18.4162504 48.5278894,19.9330703 47.4376432,21.875271 C46.3473971,23.8174717 45.8022822,26.0084338 45.8022822,28.448223 C45.8022822,30.8880123 46.3473971,33.0789744 47.4376432,35.0211751 C48.5278894,36.9633758 50.0269553,38.4801957 51.9348861,39.5716804 C53.8428168,40.6631651 55.9831944,41.2088992 58.356083,41.2088992 Z M78.3652062,5.31954688 L78.3652062,41.0229466 L80.7701489,41.0229466 L80.7701489,5.31954688 L78.3652062,5.31954688 Z M112.900183,15.8795469 L110.49524,15.8795469 L110.49524,29.2664594 C110.49524,32.2520447 109.669552,34.6276361 108.01815,36.3933049 C106.366747,38.1589736 104.130173,39.0417947 101.308359,39.0417947 C98.6789423,39.0417947 96.6427778,38.3034352 95.199805,36.8266941 C93.7568322,35.349953 93.0353566,33.1990797 93.0353566,30.3740097 L93.0353566,15.8795469 L90.6304139,15.8795469 L90.6304139,30.5666271 C90.6304139,34.0016554 91.5603158,36.6340675 93.4201474,38.4639424 C95.2799791,40.2938173 97.8452256,41.208741 101.115964,41.208741 C103.328522,41.208741 105.252457,40.7191766 106.887826,39.740033 C108.523196,38.7608894 109.757721,37.3885038 110.591438,35.6228351 L110.591438,41.0161236 L112.900183,41.0161236 L112.900183,15.8795469 Z M135.554743,39.4317268 L134.544667,37.7470729 C133.518553,38.6776483 132.219897,39.142929 130.64866,39.142929 C129.109489,39.142929 127.947112,38.7177587 127.161493,37.8674053 C126.375875,37.017052 125.983071,35.7736294 125.983071,34.1371003 L125.983071,17.9644229 L133.967481,17.9644229 L133.967481,15.8947053 L125.983071,15.8947053 L125.983071,10.4075469 L123.578129,10.4075469 L123.578129,15.8947053 L118.960639,15.8947053 L118.960639,17.9644229 L123.578129,17.9644229 L123.578129,34.3777651 C123.578129,36.5277151 124.171342,38.2043301 125.357786,39.4076603 C126.544231,40.6109905 128.227674,41.2126466 130.408166,41.2126466 C131.402214,41.2126466 132.356165,41.0602271 133.270048,40.7553834 C134.183931,40.4505398 134.945488,40.0093253 135.554743,39.4317268 Z M142.240484,15.8795469 L142.240484,41.0161236 L144.645427,41.0161236 L144.645427,15.8795469 L142.240484,15.8795469 Z M143.442955,9.79321273 C143.988078,9.79321273 144.453029,9.60073733 144.837822,9.21578075 C145.222615,8.83082417 145.415008,8.36567529 145.415008,7.82032014 C145.415008,7.27496499 145.222615,6.81783591 144.837822,6.44891919 C144.453029,6.08000247 143.988078,5.89554687 143.442955,5.89554687 C142.897832,5.89554687 142.432881,6.08802228 142.048089,6.47297885 C141.663296,6.85793543 141.470902,7.32308432 141.470902,7.86843947 C141.470902,8.41379462 141.663296,8.8709237 142.048089,9.23984042 C142.432881,9.60875714 142.897832,9.79321273 143.442955,9.79321273 Z M164.606451,41.2088992 C166.97934,41.2088992 169.119717,40.6631651 171.027648,39.5716804 C172.935579,38.4801957 174.434645,36.9633758 175.524891,35.0211751 C176.615137,33.0789744 177.160252,30.8880123 177.160252,28.448223 C177.160252,26.0084338 176.615137,23.8174717 175.524891,21.875271 C174.434645,19.9330703 172.935579,18.4162504 171.027648,17.3247657 C169.119717,16.233281 166.97934,15.6875469 164.606451,15.6875469 C162.233562,15.6875469 160.093185,16.233281 158.185254,17.3247657 C156.277323,18.4162504 154.778257,19.9330703 153.688011,21.875271 C152.597765,23.8174717 152.05265,26.0084338 152.05265,28.448223 C152.05265,30.8880123 152.597765,33.0789744 153.688011,35.0211751 C154.778257,36.9633758 156.277323,38.4801957 158.185254,39.5716804 C160.093185,40.6631651 162.233562,41.2088992 164.606451,41.2088992 Z M196.880782,15.6875469 C194.539959,15.6875469 192.511811,16.185128 190.796277,17.1803052 C189.080742,18.1754824 187.790103,19.5558688 186.924319,21.3215058 L186.924319,15.8801609 L184.615574,15.8801609 L184.615574,41.0162852 L187.020517,41.0162852 L187.020517,27.6296136 C187.020517,24.644082 187.870255,22.2685333 189.569756,20.5028964 C191.269257,18.7372594 193.594012,17.8544541 196.54409,17.8544541 C199.109375,17.8544541 201.105457,18.5928004 202.532397,20.0695149 C203.959337,21.5462295 204.672796,23.6970641 204.672796,26.5220832 L204.672796,41.0162852 L207.077739,41.0162852 L207.077739,26.3294693 C207.077739,22.8945028 206.16387,20.262138 204.336104,18.4322961 C202.508339,16.6024541 200.023256,15.6875469 196.880782,15.6875469 Z" id="Combined-Shape"></path>
            </g>
        </g>
    </g>
</svg>